<svg width="96" height="36" viewBox="0 0 96 36" fill="none" xmlns="http://www.w3.org/2000/svg">
<path d="M6.94828 35.1V36H17.931V35.1H19.9483V34.2H21.069V33.075H21.9655V32.175H22.8621V31.05H23.9828V29.025H25.1034V26.1H26V22.05H24.8793V20.025H23.9828V18H23.0862V15.075H21.9655V13.05H21.069V11.925H19.9483V13.95H21.069V15.975H19.9483V15.075H19.0517V14.175H17.931V8.1H17.0345V6.975H15.9138V8.1H15.0172V4.05H15.9138V2.025H17.0345V0H15.0172V0.9H13V2.025H12.1034V2.925H10.9828V4.05H9.86207V6.075H8.96552V7.875H8.06897V11.025H7.17241V16.2H8.06897V19.125H6.94828V21.15H6.05172V20.025H4.93103V15.075H5.82759V11.925H4.93103V13.05H4.03448V14.175H2.91379V15.975H2.01724V18H1.12069V20.025H0V27H0.896552V29.025H2.01724V31.05H3.13793V32.175H4.03448V33.075H4.93103V34.2H6.05172V35.1H6.94828Z" fill="#4D91E9"/>
<path d="M8.06897 36V34.2H6.94828V32.175H6.05172V31.05H4.93103V30.15H4.03448V29.25H2.91379V27.225H2.01724V25.2H0.896552V22.05H2.01724V19.125H2.91379V18H4.03448V19.125H2.91379V20.025H4.03448V22.05H4.93103V22.95H6.05172V24.075H6.94828V24.975H8.06897V21.15H8.96552V20.025H10.0862V15.075H8.96552V12.15H9.86207V9H10.9828V6.075H11.8793V4.05H13V2.925H13.8966V2.025H15.0172V2.925H13.8966V4.95H13V6.975H14.1207V9H15.0172V10.125H15.9138V13.95H17.0345V15.975H17.931V18H19.0517V19.125H19.9483V20.025H21.069V18H21.9655V23.175H23.0862V27H21.9655V28.125H21.069V30.15H19.9483V32.175H19.0517V33.075H17.931V34.2H17.0345V36H8.06897Z" fill="#53B8E8"/>
<path d="M10.0862 35.1V36H15.0172V35.1H15.9138V33.075H17.0345V31.05H17.931V30.15H19.0517V29.025H19.9483V27H21.069V26.1H21.9655V25.2H21.069V23.175H19.9483V22.05H19.0517V21.15H17.931V20.025H17.0345V19.125H15.9138V18H15.0172V13.95H13.8966V10.125H13V9H12.1034V12.15H10.9828V22.05H10.0862V23.175H8.96552V27H8.06897V26.1H6.05172V25.2H4.93103V24.075H4.03448V23.175H2.01724V24.075H3.13793V26.1H4.03448V27H4.93103V28.125H6.05172V29.025H6.94828V31.05H8.06897V32.175H8.96552V35.1H10.0862Z" fill="#A8E8FE" fill-opacity="0.5"/>
<path d="M10.9828 36V34.2H10.0862V31.05H8.96552V30.15H8.06897V28.125H8.96552V29.025H10.0862V27.225H10.9828V24.075H11.8793V13.05H13V15.975H13.8966V20.025H15.0172V21.15H15.9138V22.05H17.0345V23.175H17.931V24.075H19.0517V24.975H19.9483V26.1H19.0517V27H17.931V28.125H17.0345V29.025H15.9138V31.05H15.0172V34.2H13.8966V36H10.9828Z" fill="#EBFBFF"/>
<path d="M66.8883 34.8234H60.5375L48.3482 20.1944L45.1216 23.776V34.8234H40V1.17658H45.1216V17.8739L59.4108 1.17658H65.7615L51.6772 17.1172L66.8883 34.8234Z" fill="white"/>
<path d="M90.4131 34.8234H85.2916V26.7522H69.0562V22.6157L83.3966 1.17658H90.4131V22.3131H95.125V26.7522H90.4131V34.8234ZM85.2916 22.3131V5.76708L74.1265 22.3131H85.2916Z" fill="white"/>
</svg>
