<svg width="94" height="36" viewBox="0 0 94 36" fill="none" xmlns="http://www.w3.org/2000/svg">
<path d="M17.0207 35.9998H16.0195V34.9998H17.0207V35.9998Z" fill="#4D91E9"/>
<path d="M18.0219 35.9998H17.0207V34.9998H18.0219V35.9998Z" fill="#4D91E9"/>
<path d="M19.0231 34.9998L18.0219 34.9998L18.0219 33.9998H19.0231V34.9998Z" fill="#4D91E9"/>
<path d="M20.0244 34.9998H19.0231V33.9998H20.0244V34.9998Z" fill="#4D91E9"/>
<path d="M21.0256 33.9998L20.0244 33.9998L20.0244 32.9998H21.0256V33.9998Z" fill="#4D91E9"/>
<path d="M22.0266 32.9997L21.0256 32.9998L21.0254 31.9997H22.0266V32.9997Z" fill="#4D91E9"/>
<path d="M23.0281 31.9997L22.0266 31.9997L22.0269 30.9997H23.0281V31.9997Z" fill="#4D91E9"/>
<path d="M24.029 30.9997L23.0281 30.9997L23.0278 29.9997H24.029V30.9997Z" fill="#4D91E9"/>
<path d="M24.029 29.9997H23.0278V28.9999H24.029V29.9997Z" fill="#4D91E9"/>
<path d="M25.0303 28.9996L24.029 28.9999L24.0291 27.9996H25.0303V28.9996Z" fill="#4D91E9"/>
<path d="M25.0303 27.9996H24.0291V26.9999H25.0303V27.9996Z" fill="#4D91E9"/>
<path d="M3.0034 27.9999H2.00219V26.9999H3.0034V27.9999Z" fill="#4D91E9"/>
<path d="M3.0034 28.9996H2.00219V27.9999H3.0034V28.9996Z" fill="#4D91E9"/>
<path d="M3.0034 29.9999H2.00219V28.9996H3.0034V29.9999Z" fill="#4D91E9"/>
<path d="M2.00219 27.9999H1.00123V26.9999H2.00219V27.9999Z" fill="#4D91E9"/>
<path d="M2.00219 28.9996H1.00123V27.9999H2.00219V28.9996Z" fill="#4D91E9"/>
<path d="M4.00464 30.9997H3.00343L3.0034 29.9999L4.00464 29.9997V30.9997Z" fill="#4D91E9"/>
<path d="M9.01081 35.9998H8.0096V34.9998H9.01081V35.9998Z" fill="#4D91E9"/>
<path d="M4.00464 31.9997H3.00343V30.9997H4.00464V31.9997Z" fill="#4D91E9"/>
<path d="M5.00614 32.9997H4.00494L4.00464 31.9997L5.00614 31.9997V32.9997Z" fill="#4D91E9"/>
<path d="M6.0071 33.9998H5.0059L5.00614 32.9997L6.0071 32.9998V33.9998Z" fill="#4D91E9"/>
<path d="M7.00861 34.9998H6.00741L6.0071 33.9998L7.00861 33.9998V34.9998Z" fill="#4D91E9"/>
<path d="M8.0096 35.9998H7.00864L7.00861 34.9998L8.0096 34.9998V35.9998Z" fill="#4D91E9"/>
<path d="M13.016 35.9998H12.0148V34.9998H13.016V35.9998Z" fill="#EBFBFF"/>
<path d="M14.017 35.9998H13.016V34.9998H14.017V35.9998Z" fill="#EBFBFF"/>
<path d="M15.0185 35.9998H14.017V34.9998H15.0185V35.9998Z" fill="#A8E8FE"/>
<path d="M16.0195 35.9998H15.0185V34.9998H16.0195V35.9998Z" fill="#53B8E8"/>
<path d="M17.0207 34.9998H16.0195V33.9998H17.0207V34.9998Z" fill="#53B8E8"/>
<path d="M18.0219 34.9998H17.0207V33.9998H18.0219L18.0219 34.9998Z" fill="#4D91E9"/>
<path d="M19.0231 33.9998H18.0219V32.9998H19.0231V33.9998Z" fill="#4D91E9"/>
<path d="M20.0244 33.9998H19.0231V32.9998H20.0244L20.0244 33.9998Z" fill="#4D91E9"/>
<path d="M21.0256 32.9998H20.0244V31.9997H21.0254L21.0256 32.9998Z" fill="#4D91E9"/>
<path d="M22.0266 31.9997H21.0254V30.9997H22.0269L22.0266 31.9997Z" fill="#4D91E9"/>
<path d="M23.0281 30.9997H22.0269V29.9997H23.0278L23.0281 30.9997Z" fill="#4D91E9"/>
<path d="M24.029 29.9997H23.0278V28.9999H24.029V29.9997Z" fill="#4D91E9"/>
<path d="M24.029 28.9999H23.0278V27.9996H24.0291L24.029 28.9999Z" fill="#4D91E9"/>
<path d="M4.00464 29.9997L3.0034 29.9999V28.9996L4.00464 28.9999V29.9997Z" fill="#4D91E9"/>
<path d="M9.01081 34.9998H8.0096V33.9998H9.01081V34.9998Z" fill="#53B8E8"/>
<path d="M4.00464 30.9997H3.00343L3.0034 29.9999L4.00464 29.9997V30.9997Z" fill="#4D91E9"/>
<path d="M3.00343 30.9997H2.00219V29.9999H3.0034L3.00343 30.9997Z" fill="#4D91E9"/>
<path d="M1.0012 25.9998H0V24.9998H1.0012V25.9998Z" fill="#4D91E9"/>
<path d="M1.0012 24.9998H0V23.9998H1.0012V24.9998Z" fill="#4D91E9"/>
<path d="M1.00123 26.9999L0 26.9999V25.9998H1.0012L1.00123 26.9999Z" fill="#4D91E9"/>
<path d="M5.00614 31.9997L4.00464 31.9997V30.9997L5.00614 30.9997V31.9997Z" fill="#4D91E9"/>
<path d="M6.0071 32.9998L5.00614 32.9997V31.9997H6.0071V32.9998Z" fill="#4D91E9"/>
<path d="M7.00861 33.9998L6.0071 33.9998V32.9998H7.00861V33.9998Z" fill="#4D91E9"/>
<path d="M8.0096 34.9998L7.00861 34.9998V33.9998H8.0096V34.9998Z" fill="#4D91E9"/>
<path d="M12.0148 35.9998H11.013V34.9998H12.0148V35.9998Z" fill="#EBFBFF"/>
<path d="M11.013 35.9998H10.0121V34.9998H11.013V35.9998Z" fill="#A8E8FE"/>
<path d="M10.0121 35.9998H9.01081V34.9998H10.0121V35.9998Z" fill="#53B8E8"/>
<path d="M13.016 34.9998H12.0148V33.9998H13.016V34.9998Z" fill="#EBFBFF"/>
<path d="M14.017 34.9998H13.016V33.9998H14.017V34.9998Z" fill="#EBFBFF"/>
<path d="M15.0185 34.9998H14.017V33.9998H15.0185V34.9998Z" fill="#A8E8FE"/>
<path d="M16.0195 34.9998H15.0185V33.9998H16.0195V34.9998Z" fill="#53B8E8"/>
<path d="M17.0207 33.9998H16.0195V32.9998H17.0207V33.9998Z" fill="#53B8E8"/>
<path d="M18.0219 33.9998H17.0207V32.9998H18.0219V33.9998Z" fill="#53B8E8"/>
<path d="M19.0231 32.9998H18.0219V31.9997H19.0231V32.9998Z" fill="#53B8E8"/>
<path d="M20.0244 32.9998H19.0231V31.9997H20.0244V32.9998Z" fill="#4D91E9"/>
<path d="M21.0254 31.9997H20.0244V30.9997H21.0254V31.9997Z" fill="#4D91E9"/>
<path d="M22.0269 30.9997H21.0254V29.9997H22.0269V30.9997Z" fill="#4D91E9"/>
<path d="M23.0278 29.9997H22.0269V28.9999H23.0278V29.9997Z" fill="#4D91E9"/>
<path d="M24.0291 27.9996H23.0278V26.9999H24.0291V27.9996Z" fill="#4D91E9"/>
<path d="M4.00464 28.9999L3.0034 28.9996V27.9999L4.00464 27.9996V28.9999Z" fill="#4D91E9"/>
<path d="M9.01081 33.9998H8.0096V32.9998H9.01081V33.9998Z" fill="#53B8E8"/>
<path d="M4.00464 29.9997L3.0034 29.9999V28.9996L4.00464 28.9999V29.9997Z" fill="#4D91E9"/>
<path d="M5.00614 30.9997L4.00464 30.9997V29.9997H5.00614V30.9997Z" fill="#4D91E9"/>
<path d="M6.0071 31.9997H5.00614V30.9997H6.0071V31.9997Z" fill="#4D91E9"/>
<path d="M7.00861 32.9998H6.0071V31.9997H7.00861V32.9998Z" fill="#4D91E9"/>
<path d="M8.0096 33.9998H7.00861V32.9998H8.0096V33.9998Z" fill="#4D91E9"/>
<path d="M12.0148 34.9998H11.013V33.9998H12.0148V34.9998Z" fill="#EBFBFF"/>
<path d="M11.013 34.9998H10.0121V33.9998H11.013V34.9998Z" fill="#A8E8FE"/>
<path d="M10.0121 34.9998H9.01081V33.9998H10.0121V34.9998Z" fill="#53B8E8"/>
<path d="M13.016 33.9998H12.0148V32.9998H13.016V33.9998Z" fill="#EBFBFF"/>
<path d="M14.017 33.9998H13.016V32.9998H14.017V33.9998Z" fill="#EBFBFF"/>
<path d="M15.0185 33.9998H14.017V32.9998H15.0185V33.9998Z" fill="#A8E8FE"/>
<path d="M16.0195 33.9998H15.0185V32.9998H16.0195V33.9998Z" fill="#A8E8FE"/>
<path d="M17.0207 32.9998H16.0195V31.9997H17.0207V32.9998Z" fill="#A8E8FE"/>
<path d="M18.0219 32.9998H17.0207V31.9997H18.0219V32.9998Z" fill="#53B8E8"/>
<path d="M19.0231 31.9997H18.0219V30.9997H19.0231V31.9997Z" fill="#53B8E8"/>
<path d="M20.0244 31.9997H19.0231V30.9997H20.0244V31.9997Z" fill="#53B8E8"/>
<path d="M21.0254 30.9997H20.0244V29.9997H21.0254V30.9997Z" fill="#53B8E8"/>
<path d="M22.0269 29.9997H21.0254V28.9999H22.0269V29.9997Z" fill="#53B8E8"/>
<path d="M23.0278 28.9999H22.0269V27.9996H23.0278V28.9999Z" fill="#4D91E9"/>
<path d="M4.00464 27.9996L3.0034 27.9999V26.9999H4.00464V27.9996Z" fill="#53B8E8"/>
<path d="M9.01081 32.9998H8.0096V31.9997H9.01081V32.9998Z" fill="#53B8E8"/>
<path d="M4.00464 28.9999L3.0034 28.9996V27.9999L4.00464 27.9996V28.9999Z" fill="#4D91E9"/>
<path d="M5.00614 29.9997H4.00464V28.9999H5.00614V29.9997Z" fill="#53B8E8"/>
<path d="M6.0071 30.9997H5.00614V29.9997H6.0071V30.9997Z" fill="#53B8E8"/>
<path d="M7.00861 31.9997H6.0071V30.9997H7.00861V31.9997Z" fill="#53B8E8"/>
<path d="M8.0096 32.9998H7.00861V31.9997H8.0096V32.9998Z" fill="#53B8E8"/>
<path d="M12.0148 33.9998H11.013V32.9998H12.0148V33.9998Z" fill="#EBFBFF"/>
<path d="M11.013 33.9998H10.0121V32.9998H11.013V33.9998Z" fill="#A8E8FE"/>
<path d="M10.0121 33.9998H9.01081V32.9998H10.0121V33.9998Z" fill="#A8E8FE"/>
<path d="M13.016 32.9998H12.0148V31.9997H13.016V32.9998Z" fill="#EBFBFF"/>
<path d="M14.017 32.9998H13.016V31.9997H14.017V32.9998Z" fill="#EBFBFF"/>
<path d="M15.0185 32.9998H14.017V31.9997H15.0185V32.9998Z" fill="#EBFBFF"/>
<path d="M16.0195 32.9998H15.0185V31.9997H16.0195V32.9998Z" fill="#A8E8FE"/>
<path d="M17.0207 31.9997H16.0195V30.9997H17.0207V31.9997Z" fill="#A8E8FE"/>
<path d="M18.0219 31.9997H17.0207V30.9997H18.0219V31.9997Z" fill="#A8E8FE"/>
<path d="M19.0231 30.9997H18.0219V29.9997H19.0231V30.9997Z" fill="#A8E8FE"/>
<path d="M20.0244 30.9997H19.0231V29.9997H20.0244V30.9997Z" fill="#53B8E8"/>
<path d="M21.0254 29.9997H20.0244V28.9999H21.0254V29.9997Z" fill="#53B8E8"/>
<path d="M22.0269 28.9999H21.0254V27.9996H22.0269V28.9999Z" fill="#53B8E8"/>
<path d="M23.0278 27.9996H22.0269V26.9999H23.0278V27.9996Z" fill="#53B8E8"/>
<path d="M9.01081 31.9997H8.0096V30.9997H9.01081V31.9997Z" fill="#A8E8FE"/>
<path d="M5.00614 28.9999H4.00464V27.9996H5.00614V28.9999Z" fill="#53B8E8"/>
<path d="M6.0071 29.9997H5.00614V28.9999H6.0071V29.9997Z" fill="#53B8E8"/>
<path d="M7.00861 30.9997H6.0071V29.9997H7.00861V30.9997Z" fill="#53B8E8"/>
<path d="M8.0096 31.9997H7.00861V30.9997H8.0096V31.9997Z" fill="#53B8E8"/>
<path d="M12.0148 32.9998H11.013V31.9997H12.0148V32.9998Z" fill="#EBFBFF"/>
<path d="M11.013 32.9998H10.0121V31.9997H11.013V32.9998Z" fill="#EBFBFF"/>
<path d="M10.0121 32.9998H9.01081V31.9997H10.0121V32.9998Z" fill="#A8E8FE"/>
<path d="M13.016 31.9997H12.0148V30.9997H13.016V31.9997Z" fill="#EBFBFF"/>
<path d="M14.017 31.9997H13.016V30.9997H14.017V31.9997Z" fill="#EBFBFF"/>
<path d="M15.0185 31.9997H14.017V30.9997H15.0185V31.9997Z" fill="#EBFBFF"/>
<path d="M16.0195 31.9997H15.0185V30.9997H16.0195V31.9997Z" fill="#A8E8FE"/>
<path d="M17.0207 30.9997H16.0195V29.9997H17.0207V30.9997Z" fill="#A8E8FE"/>
<path d="M18.0219 30.9997H17.0207V29.9997H18.0219V30.9997Z" fill="#A8E8FE"/>
<path d="M19.0231 29.9997H18.0219V28.9999H19.0231V29.9997Z" fill="#A8E8FE"/>
<path d="M20.0244 29.9997H19.0231V28.9999H20.0244V29.9997Z" fill="#A8E8FE"/>
<path d="M21.0254 28.9999H20.0244V27.9996H21.0254V28.9999Z" fill="#53B8E8"/>
<path d="M22.0269 27.9996H21.0254V26.9999H22.0269V27.9996Z" fill="#53B8E8"/>
<path d="M25.0303 26.9999H24.0291V25.9999H25.0303V26.9999Z" fill="#4D91E9"/>
<path d="M25.0303 25.9999H24.0291V24.9998H25.0303V25.9999Z" fill="#4D91E9"/>
<path d="M25.0303 24.9998H24.0291V23.9998H25.0303V24.9998Z" fill="#4D91E9"/>
<path d="M26.0312 25.9998L25.0303 25.9999V24.9998H26.0312V25.9998Z" fill="#4D91E9"/>
<path d="M26.0312 24.9998H25.0303V23.9998H26.0312V24.9998Z" fill="#4D91E9"/>
<path d="M24.0291 26.9999H23.0278V25.9999H24.0291V26.9999Z" fill="#4D91E9"/>
<path d="M24.0291 25.9999H23.0278V24.9998H24.0291V25.9999Z" fill="#4D91E9"/>
<path d="M23.0278 26.9999H22.0269V25.9999H23.0278V26.9999Z" fill="#53B8E8"/>
<path d="M22.0269 26.9999H21.0254V25.9999H22.0269V26.9999Z" fill="#53B8E8"/>
<path d="M23.0278 25.9999H22.0269V24.9998H23.0278V25.9999Z" fill="#53B8E8"/>
<path d="M22.0269 25.9999H21.0254V24.9998H22.0269V25.9999Z" fill="#53B8E8"/>
<path d="M24.0291 24.9998H23.0278V23.9998H24.0291V24.9998Z" fill="#53B8E8"/>
<path d="M23.0278 24.9998H22.0269V23.9998H23.0278V24.9998Z" fill="#53B8E8"/>
<path d="M22.0269 24.9998H21.0254V23.9998H22.0269V24.9998Z" fill="#A8E8FE"/>
<path d="M9.01081 30.9997H8.0096V29.9997H9.01081V30.9997Z" fill="#A8E8FE"/>
<path d="M5.00614 27.9996H4.00464V26.9999H5.00614V27.9996Z" fill="#53B8E8"/>
<path d="M6.0071 28.9999H5.00614V27.9996H6.0071V28.9999Z" fill="#A8E8FE"/>
<path d="M7.00861 29.9997H6.0071V28.9999H7.00861V29.9997Z" fill="#A8E8FE"/>
<path d="M8.0096 30.9997H7.00861V29.9997H8.0096V30.9997Z" fill="#A8E8FE"/>
<path d="M12.0148 31.9997H11.013V30.9997H12.0148V31.9997Z" fill="#EBFBFF"/>
<path d="M11.013 31.9997H10.0121V30.9997H11.013V31.9997Z" fill="#EBFBFF"/>
<path d="M10.0121 31.9997H9.01081V30.9997H10.0121V31.9997Z" fill="#A8E8FE"/>
<path d="M13.016 30.9997H12.0148V29.9997H13.016V30.9997Z" fill="#EBFBFF"/>
<path d="M14.017 30.9997H13.016V29.9997H14.017V30.9997Z" fill="#EBFBFF"/>
<path d="M15.0185 30.9997H14.017V29.9997H15.0185V30.9997Z" fill="#EBFBFF"/>
<path d="M16.0195 30.9997H15.0185V29.9997H16.0195V30.9997Z" fill="#EBFBFF"/>
<path d="M17.0207 29.9997H16.0195V28.9999H17.0207V29.9997Z" fill="#EBFBFF"/>
<path d="M18.0219 29.9997H17.0207V28.9999H18.0219V29.9997Z" fill="#A8E8FE"/>
<path d="M19.0231 28.9999H18.0219V27.9996H19.0231V28.9999Z" fill="#A8E8FE"/>
<path d="M20.0244 28.9999H19.0231V27.9996H20.0244V28.9999Z" fill="#A8E8FE"/>
<path d="M21.0254 27.9996H20.0244V26.9999H21.0254V27.9996Z" fill="#53B8E8"/>
<path d="M9.01081 29.9997H8.0096V28.9999H9.01081V29.9997Z" fill="#EBFBFF"/>
<path d="M6.0071 27.9996H5.00614V26.9999H6.0071V27.9996Z" fill="#53B8E8"/>
<path d="M3.0034 25.9998H2.00219V24.9998H3.0034V25.9998Z" fill="#53B8E8"/>
<path d="M3.0034 26.9999H2.00219V25.9998H3.0034V26.9999Z" fill="#53B8E8"/>
<path d="M2.00219 25.9998H1.0012V24.9998H2.00219V25.9998Z" fill="#4D91E9"/>
<path d="M2.00219 26.9999H1.00123L1.0012 25.9998H2.00219V26.9999Z" fill="#4D91E9"/>
<path d="M4.00464 26.9999H3.0034V25.9998L4.00464 25.9999V26.9999Z" fill="#53B8E8"/>
<path d="M4.00464 25.9999L3.0034 25.9998V24.9998H4.00464V25.9999Z" fill="#53B8E8"/>
<path d="M5.00614 26.9999H4.00464V25.9999H5.00614V26.9999Z" fill="#53B8E8"/>
<path d="M5.00614 25.9999H4.00464V24.9998H5.00614V25.9999Z" fill="#4D91E9"/>
<path d="M6.0071 26.9999H5.00614V25.9999H6.0071V26.9999Z" fill="#53B8E8"/>
<path d="M6.0071 25.9999H5.00614V24.9998H6.0071V25.9999Z" fill="#4D91E9"/>
<path d="M3.0034 24.9998H2.00219V23.9998H3.0034V24.9998Z" fill="#53B8E8"/>
<path d="M2.00219 24.9998H1.0012V23.9998H2.00219V24.9998Z" fill="#4D91E9"/>
<path d="M4.00464 24.9998H3.0034V23.9998H4.00464V24.9998Z" fill="#4D91E9"/>
<path d="M5.00614 24.9998H4.00464V23.9998H5.00614V24.9998Z" fill="#4D91E9"/>
<path d="M3.0034 23.9998H2.00219V22.9998H3.0034V23.9998Z" fill="#4D91E9"/>
<path d="M2.00219 23.9998H1.0012L1.00123 22.9998H2.00219V23.9998Z" fill="#4D91E9"/>
<path d="M1.0012 23.9998H0V22.9998H1.00123L1.0012 23.9998Z" fill="#4D91E9"/>
<path d="M4.00464 23.9998H3.0034V22.9998H4.00464V23.9998Z" fill="#4D91E9"/>
<path d="M4.00464 22.9998H3.0034L3.00343 21.9998H4.00464V22.9998Z" fill="#4D91E9"/>
<path d="M2.00219 22.9998H1.00123V21.9998H2.00244L2.00219 22.9998Z" fill="#4D91E9"/>
<path d="M1.00123 22.9998H0V21.9998H1.00123V22.9998Z" fill="#4D91E9"/>
<path d="M3.0034 22.9998H2.00219L2.00244 21.9998H3.00343L3.0034 22.9998Z" fill="#4D91E9"/>
<path d="M2.00244 21.9998H1.00123V20.9997H2.00244V21.9998Z" fill="#4D91E9"/>
<path d="M2.00244 20.9997H1.00123V19.9997H2.00244V20.9997Z" fill="#4D91E9"/>
<path d="M2.00244 19.9997H1.00123V18.9997H2.00244V19.9997Z" fill="#4D91E9"/>
<path d="M3.00343 21.9998H2.00244V20.9997H3.0034L3.00343 21.9998Z" fill="#4D91E9"/>
<path d="M3.0034 20.9997H2.00244V19.9997H3.0034V20.9997Z" fill="#4D91E9"/>
<path d="M3.0034 19.9997H2.00244V18.9997H3.0034V19.9997Z" fill="#4D91E9"/>
<path d="M3.0034 18.9997H2.00244L2.00219 17.9999H3.0034V18.9997Z" fill="#4D91E9"/>
<path d="M5.00614 23.9998H4.00464V22.9998H5.00614V23.9998Z" fill="#4D91E9"/>
<path d="M7.00861 28.9999H6.0071V27.9996H7.00861V28.9999Z" fill="#A8E8FE"/>
<path d="M8.0096 29.9997H7.00861V28.9999H8.0096V29.9997Z" fill="#A8E8FE"/>
<path d="M12.0148 30.9997H11.013V29.9997H12.0148V30.9997Z" fill="#EBFBFF"/>
<path d="M11.013 30.9997H10.0121V29.9997H11.013V30.9997Z" fill="#EBFBFF"/>
<path d="M10.0121 30.9997H9.01081V29.9997H10.0121V30.9997Z" fill="#EBFBFF"/>
<path d="M13.016 29.9997H12.0148V28.9999H13.016V29.9997Z" fill="#EBFBFF"/>
<path d="M14.017 29.9997H13.016V28.9999H14.017V29.9997Z" fill="#EBFBFF"/>
<path d="M15.0185 29.9997H14.017V28.9999H15.0185V29.9997Z" fill="#EBFBFF"/>
<path d="M16.0195 29.9997H15.0185V28.9999H16.0195V29.9997Z" fill="#EBFBFF"/>
<path d="M17.0207 28.9999H16.0195V27.9996H17.0207V28.9999Z" fill="#EBFBFF"/>
<path d="M18.0219 28.9999H17.0207V27.9996H18.0219V28.9999Z" fill="#EBFBFF"/>
<path d="M19.0231 27.9996H18.0219V26.9999H19.0231V27.9996Z" fill="#EBFBFF"/>
<path d="M20.0244 27.9996H19.0231V26.9999H20.0244V27.9996Z" fill="#A8E8FE"/>
<path d="M18.0219 27.9996H17.0207L17.0207 26.9999H18.0219V27.9996Z" fill="#EBFBFF"/>
<path d="M9.01081 28.9999H8.0096V27.9996H9.01081V28.9999Z" fill="#A8E8FE"/>
<path d="M9.01081 27.9996H8.0096V26.9999H9.01081V27.9996Z" fill="#A8E8FE"/>
<path d="M7.00861 27.9996H6.0071V26.9999H7.00861V27.9996Z" fill="#53B8E8"/>
<path d="M8.0096 28.9999H7.00861V27.9996H8.0096V28.9999Z" fill="#A8E8FE"/>
<path d="M8.0096 27.9996H7.00861V26.9999H8.0096V27.9996Z" fill="#53B8E8"/>
<path d="M12.0148 29.9997H11.013V28.9999H12.0148V29.9997Z" fill="#EBFBFF"/>
<path d="M13.016 28.9999H12.0148V27.9996H13.016V28.9999Z" fill="#EBFBFF"/>
<path d="M14.017 28.9999H13.016V27.9996H14.017V28.9999Z" fill="#EBFBFF"/>
<path d="M15.0185 28.9999H14.017V27.9996H15.0185V28.9999Z" fill="#EBFBFF"/>
<path d="M16.0195 28.9999H15.0185V27.9996H16.0195V28.9999Z" fill="#EBFBFF"/>
<path d="M12.0148 28.9999H11.013V27.9996H12.0148V28.9999Z" fill="#EBFBFF"/>
<path d="M17.0207 27.9996H16.0195V26.9999H17.0207L17.0207 27.9996Z" fill="#EBFBFF"/>
<path d="M13.016 27.9996H12.0148V26.9999H13.016V27.9996Z" fill="#EBFBFF"/>
<path d="M14.017 27.9996H13.016V26.9999H14.017V27.9996Z" fill="#EBFBFF"/>
<path d="M15.0185 27.9996H14.017V26.9999H15.0185V27.9996Z" fill="#EBFBFF"/>
<path d="M16.0195 27.9996H15.0185V26.9999H16.0195V27.9996Z" fill="#EBFBFF"/>
<path d="M12.0148 27.9996H11.013V26.9999H12.0148V27.9996Z" fill="#EBFBFF"/>
<path d="M11.013 29.9997H10.0121V28.9999H11.013V29.9997Z" fill="#EBFBFF"/>
<path d="M10.0121 29.9997H9.01081V28.9999H10.0121V29.9997Z" fill="#EBFBFF"/>
<path d="M11.013 28.9999H10.0121V27.9996H11.013V28.9999Z" fill="#EBFBFF"/>
<path d="M10.0121 28.9999H9.01081V27.9996H10.0121V28.9999Z" fill="#EBFBFF"/>
<path d="M11.013 27.9996H10.0121V26.9999H11.013V27.9996Z" fill="#EBFBFF"/>
<path d="M10.0121 27.9996H9.01081V26.9999H10.0121V27.9996Z" fill="#EBFBFF"/>
<path d="M21.0254 26.9999H20.0244V25.9999H21.0254V26.9999Z" fill="#A8E8FE"/>
<path d="M19.0231 26.9999H18.0219V25.9999H19.0231V26.9999Z" fill="#EBFBFF"/>
<path d="M20.0244 26.9999H19.0231V25.9999H20.0244V26.9999Z" fill="#A8E8FE"/>
<path d="M21.0254 25.9999H20.0244V24.9998H21.0254V25.9999Z" fill="#A8E8FE"/>
<path d="M7.00861 26.9999H6.0071V25.9999H7.00861V26.9999Z" fill="#4D91E9"/>
<path d="M6.0071 24.9998H5.00614V23.9998H6.0071V24.9998Z" fill="#4D91E9"/>
<path d="M7.00861 25.9999H6.0071V24.9998H7.00861V25.9999Z" fill="#4D91E9"/>
<path d="M7.00861 24.9998H6.0071V23.9998H7.00861V24.9998Z" fill="#4D91E9"/>
<path d="M7.00861 23.9998H6.0071L6.00741 22.9998H7.00861V23.9998Z" fill="#53B8E8"/>
<path d="M7.00861 22.9998H6.00741V21.9998H7.00861V22.9998Z" fill="#53B8E8"/>
<path d="M6.00741 22.9998H5.00614L5.0059 21.9998H6.00741V22.9998Z" fill="#4D91E9"/>
<path d="M6.0071 23.9998H5.00614V22.9998H6.00741L6.0071 23.9998Z" fill="#4D91E9"/>
<path d="M7.00861 21.9998H6.00741V20.9997H7.00861V21.9998Z" fill="#53B8E8"/>
<path d="M7.00861 20.9997H6.00741V19.9997H7.00861V20.9997Z" fill="#53B8E8"/>
<path d="M7.00861 19.9997H6.00741V18.9997H7.00861V19.9997Z" fill="#4D91E9"/>
<path d="M7.00861 18.9997H6.00741V17.9999H7.00861V18.9997Z" fill="#4D91E9"/>
<path d="M6.00741 21.9998H5.0059V20.9997H6.00741V21.9998Z" fill="#4D91E9"/>
<path d="M6.00741 20.9997H5.0059V19.9997H6.00741V20.9997Z" fill="#4D91E9"/>
<path d="M6.00741 19.9997H5.0059V18.9997H6.00741V19.9997Z" fill="#4D91E9"/>
<path d="M6.00741 18.9997H5.0059V17.9999H6.00741V18.9997Z" fill="#4D91E9"/>
<path d="M7.00861 17.9999H6.00741V16.9999H7.00861V17.9999Z" fill="#4D91E9"/>
<path d="M7.00861 16.9999H6.00741V15.9999H7.00861V16.9999Z" fill="#4D91E9"/>
<path d="M7.00861 15.9999H6.00741V14.9998H7.00861V15.9999Z" fill="#4D91E9"/>
<path d="M8.00984 14.9998L7.00861 14.9998L7.00864 13.9998H8.00984V14.9998Z" fill="#4D91E9"/>
<path d="M9.01081 13.9998L8.00984 13.9998L8.0096 12.9998H9.01081V13.9998Z" fill="#4D91E9"/>
<path d="M8.00984 13.9998H7.00864V12.9998H8.0096L8.00984 13.9998Z" fill="#4D91E9"/>
<path d="M10.012 12.9998L9.01081 12.9998L9.01084 11.9998H10.012V12.9998Z" fill="#53B8E8"/>
<path d="M9.01081 12.9998H8.0096V11.9998H9.01084L9.01081 12.9998Z" fill="#4D91E9"/>
<path d="M10.012 11.9998H9.01084V10.9997H10.012V11.9998Z" fill="#4D91E9"/>
<path d="M9.01084 11.9998H8.0096V10.9997H9.01084V11.9998Z" fill="#4D91E9"/>
<path d="M10.012 10.9997H9.01084V9.99971H10.012V10.9997Z" fill="#4D91E9"/>
<path d="M10.012 9.99971H9.01084V8.99996H10.012V9.99971Z" fill="#4D91E9"/>
<path d="M11.0133 8.99993L10.012 8.99996L10.0121 7.99993H11.0133V8.99993Z" fill="#4D91E9"/>
<path d="M11.0133 7.99993H10.0121V6.99991H11.0133V7.99993Z" fill="#4D91E9"/>
<path d="M10.0121 7.99993L9.01084 7.9999V6.99991H10.0121V7.99993Z" fill="#4D91E9"/>
<path d="M10.012 8.99996H9.01084V7.9999L10.0121 7.99993L10.012 8.99996Z" fill="#4D91E9"/>
<path d="M10.0121 6.99991H9.01084V6.00015H10.012L10.0121 6.99991Z" fill="#4D91E9"/>
<path d="M11.0133 10.9997L10.012 10.9997V9.99971H11.0133V10.9997Z" fill="#4D91E9"/>
<path d="M11.0133 9.99971H10.012V8.99996L11.0133 8.99993V9.99971Z" fill="#4D91E9"/>
<path d="M11.0133 11.9997L10.012 11.9998V10.9997L11.0133 10.9997V11.9997Z" fill="#53B8E8"/>
<path d="M11.0133 13.9998H10.0121L10.012 12.9998L11.0133 12.9998V13.9998Z" fill="#4D91E9"/>
<path d="M11.0133 12.9998L10.012 12.9998V11.9998L11.0133 11.9997V12.9998Z" fill="#53B8E8"/>
<path d="M17.0207 26.9999H16.0195V25.9999H17.0207L17.0207 26.9999Z" fill="#EBFBFF"/>
<path d="M18.0219 26.9999H17.0207L17.0207 25.9999H18.0219V26.9999Z" fill="#EBFBFF"/>
<path d="M19.0231 25.9999H18.0219V24.9998H19.0231V25.9999Z" fill="#EBFBFF"/>
<path d="M20.0244 25.9999H19.0231V24.9998H20.0244V25.9999Z" fill="#A8E8FE"/>
<path d="M21.0254 24.9998H20.0244V23.9998H21.0254V24.9998Z" fill="#A8E8FE"/>
<path d="M9.01081 26.9999H8.0096V25.9999H9.01081V26.9999Z" fill="#A8E8FE"/>
<path d="M8.0096 26.9999H7.00861V25.9999H8.0096V26.9999Z" fill="#53B8E8"/>
<path d="M13.016 26.9999H12.0148V25.9999H13.016V26.9999Z" fill="#EBFBFF"/>
<path d="M14.017 26.9999H13.016V25.9999H14.017V26.9999Z" fill="#EBFBFF"/>
<path d="M15.0185 26.9999H14.017V25.9999H15.0185V26.9999Z" fill="#EBFBFF"/>
<path d="M16.0195 26.9999H15.0185V25.9999H16.0195V26.9999Z" fill="#EBFBFF"/>
<path d="M17.0207 25.9999H16.0195V24.9998H17.0207V25.9999Z" fill="#EBFBFF"/>
<path d="M18.0219 25.9999H17.0207V24.9998H18.0219V25.9999Z" fill="#EBFBFF"/>
<path d="M19.0231 24.9998H18.0219V23.9998H19.0231V24.9998Z" fill="#EBFBFF"/>
<path d="M20.0244 24.9998H19.0231V23.9998H20.0244V24.9998Z" fill="#A8E8FE"/>
<path d="M9.01081 25.9999H8.0096V24.9998H9.01081V25.9999Z" fill="#A8E8FE"/>
<path d="M8.0096 25.9999H7.00861V24.9998H8.0096V25.9999Z" fill="#53B8E8"/>
<path d="M12.0148 26.9999H11.013V25.9999H12.0148V26.9999Z" fill="#EBFBFF"/>
<path d="M11.013 26.9999H10.0121V25.9999H11.013V26.9999Z" fill="#EBFBFF"/>
<path d="M10.0121 26.9999H9.01081V25.9999H10.0121V26.9999Z" fill="#A8E8FE"/>
<path d="M13.016 25.9999H12.0148V24.9998H13.016V25.9999Z" fill="#EBFBFF"/>
<path d="M14.017 25.9999H13.016V24.9998H14.017V25.9999Z" fill="#EBFBFF"/>
<path d="M15.0185 25.9999H14.017V24.9998H15.0185V25.9999Z" fill="#EBFBFF"/>
<path d="M16.0195 25.9999H15.0185V24.9998H16.0195V25.9999Z" fill="#EBFBFF"/>
<path d="M17.0207 24.9998H16.0195V23.9998H17.0207V24.9998Z" fill="#EBFBFF"/>
<path d="M18.0219 24.9998H17.0207V23.9998H18.0219V24.9998Z" fill="#EBFBFF"/>
<path d="M9.01081 24.9998H8.0096V23.9998H9.01081V24.9998Z" fill="#A8E8FE"/>
<path d="M8.0096 24.9998H7.00861V23.9998H8.0096V24.9998Z" fill="#53B8E8"/>
<path d="M12.0148 25.9999H11.013V24.9998H12.0148V25.9999Z" fill="#EBFBFF"/>
<path d="M13.016 24.9998H12.0148V23.9998H13.016V24.9998Z" fill="#EBFBFF"/>
<path d="M14.017 24.9998H13.016V23.9998H14.017V24.9998Z" fill="#EBFBFF"/>
<path d="M15.0185 24.9998H14.017V23.9998H15.0185V24.9998Z" fill="#EBFBFF"/>
<path d="M16.0195 24.9998H15.0185V23.9998H16.0195V24.9998Z" fill="#EBFBFF"/>
<path d="M12.0148 24.9998H11.013V23.9998H12.0148V24.9998Z" fill="#EBFBFF"/>
<path d="M11.013 25.9999H10.0121V24.9998H11.013V25.9999Z" fill="#A8E8FE"/>
<path d="M10.0121 25.9999H9.01081V24.9998H10.0121V25.9999Z" fill="#A8E8FE"/>
<path d="M11.013 24.9998H10.0121V23.9998H11.013V24.9998Z" fill="#A8E8FE"/>
<path d="M10.0121 24.9998H9.01081V23.9998H10.0121V24.9998Z" fill="#A8E8FE"/>
<path d="M24.029 22.9997H23.0278V21.9998H24.029V22.9997Z" fill="#53B8E8"/>
<path d="M24.029 21.9998H23.0278V20.9997H24.029V21.9998Z" fill="#4D91E9"/>
<path d="M22.0269 23.9998H21.0254V22.9998H22.0266L22.0269 23.9998Z" fill="#A8E8FE"/>
<path d="M23.0278 22.9997L22.0266 22.9998L22.0269 21.9998H23.0278V22.9997Z" fill="#53B8E8"/>
<path d="M24.029 21.9998H23.0278V20.9997H24.029V21.9998Z" fill="#4D91E9"/>
<path d="M24.029 20.9997H23.0278V19.9997H24.029V20.9997Z" fill="#4D91E9"/>
<path d="M21.0254 23.9998H20.0244V22.9998H21.0254V23.9998Z" fill="#A8E8FE"/>
<path d="M22.0266 22.9998H21.0254V21.9998H22.0269L22.0266 22.9998Z" fill="#A8E8FE"/>
<path d="M23.0278 21.9998H22.0269V20.9997H23.0278V21.9998Z" fill="#53B8E8"/>
<path d="M24.029 19.9997H23.0278V18.9997H24.029V19.9997Z" fill="#4D91E9"/>
<path d="M25.0303 21.9997L24.029 21.9998V20.9997H25.0303V21.9997Z" fill="#4D91E9"/>
<path d="M25.0303 21.9997L24.029 21.9998V20.9997H25.0303V21.9997Z" fill="#4D91E9"/>
<path d="M25.0303 20.9997H24.029V19.9997H25.0303V20.9997Z" fill="#4D91E9"/>
<path d="M25.0303 19.9997H24.029V18.9997H25.0303V19.9997Z" fill="#4D91E9"/>
<path d="M19.0231 23.9998H18.0219V22.9998H19.0231V23.9998Z" fill="#EBFBFF"/>
<path d="M20.0244 23.9998H19.0231V22.9998H20.0244V23.9998Z" fill="#EBFBFF"/>
<path d="M21.0254 22.9998H20.0244V21.9998H21.0254V22.9998Z" fill="#A8E8FE"/>
<path d="M26.0312 23.9998H25.0303L25.03 22.9998H26.0312V23.9998Z" fill="#4D91E9"/>
<path d="M25.0303 23.9998H24.0291L24.029 22.9997L25.03 22.9998L25.0303 23.9998Z" fill="#4D91E9"/>
<path d="M24.0291 23.9998H23.0278V22.9997H24.029L24.0291 23.9998Z" fill="#53B8E8"/>
<path d="M23.0278 23.9998H22.0269L22.0266 22.9998L23.0278 22.9997V23.9998Z" fill="#A8E8FE"/>
<path d="M26.0312 22.9998H25.03L25.0303 21.9997L26.0312 21.9998V22.9998Z" fill="#4D91E9"/>
<path d="M26.0312 21.9998L25.0303 21.9997V20.9997H26.0312V21.9998Z" fill="#4D91E9"/>
<path d="M25.03 22.9998L24.029 22.9997V21.9998L25.0303 21.9997L25.03 22.9998Z" fill="#4D91E9"/>
<path d="M22.0269 21.9998H21.0254V20.9997H22.0269V21.9998Z" fill="#A8E8FE"/>
<path d="M23.0278 20.9997H22.0269V19.9997H23.0278V20.9997Z" fill="#53B8E8"/>
<path d="M17.0207 23.9998H16.0195V22.9998H17.0207V23.9998Z" fill="#EBFBFF"/>
<path d="M18.0219 23.9998H17.0207V22.9998H18.0219V23.9998Z" fill="#EBFBFF"/>
<path d="M19.0231 22.9998H18.0219V21.9998H19.0231V22.9998Z" fill="#A8E8FE"/>
<path d="M20.0244 22.9998H19.0231V21.9998H20.0244V22.9998Z" fill="#A8E8FE"/>
<path d="M21.0254 21.9998H20.0244V20.9997H21.0254V21.9998Z" fill="#A8E8FE"/>
<path d="M22.0269 20.9997H21.0254V19.9997H22.0269V20.9997Z" fill="#53B8E8"/>
<path d="M23.0278 19.9997H22.0269V18.9997H23.0278V19.9997Z" fill="#4D91E9"/>
<path d="M9.01081 23.9998H8.0096V22.9998H9.01081V23.9998Z" fill="#A8E8FE"/>
<path d="M8.0096 23.9998H7.00861V22.9998H8.0096V23.9998Z" fill="#53B8E8"/>
<path d="M13.016 23.9998H12.0148V22.9998H13.016V23.9998Z" fill="#EBFBFF"/>
<path d="M14.017 23.9998H13.016V22.9998H14.017V23.9998Z" fill="#EBFBFF"/>
<path d="M15.0185 23.9998H14.017V22.9998H15.0185V23.9998Z" fill="#A8E8FE"/>
<path d="M16.0195 23.9998H15.0185V22.9998H16.0195V23.9998Z" fill="#EBFBFF"/>
<path d="M17.0207 22.9998H16.0195V21.9998H17.0207V22.9998Z" fill="#EBFBFF"/>
<path d="M18.0219 22.9998H17.0207V21.9998H18.0219V22.9998Z" fill="#EBFBFF"/>
<path d="M19.0231 21.9998H18.0219V20.9997H19.0231V21.9998Z" fill="#EBFBFF"/>
<path d="M20.0244 21.9998H19.0231V20.9997H20.0244V21.9998Z" fill="#A8E8FE"/>
<path d="M21.0254 20.9997H20.0244V19.9997H21.0254V20.9997Z" fill="#A8E8FE"/>
<path d="M22.0269 19.9997H21.0254V18.9997H22.0269V19.9997Z" fill="#53B8E8"/>
<path d="M24.029 18.9997H23.0278V17.9999H24.029V18.9997Z" fill="#4D91E9"/>
<path d="M24.029 17.9999H23.0278V16.9999H24.029V17.9999Z" fill="#4D91E9"/>
<path d="M25.0303 18.9997H24.029V17.9999H25.0303V18.9997Z" fill="#4D91E9"/>
<path d="M25.0303 17.9999H24.029V16.9999H25.0303V17.9999Z" fill="#4D91E9"/>
<path d="M23.0278 18.9997H22.0269V17.9999H23.0278V18.9997Z" fill="#4D91E9"/>
<path d="M22.0269 18.9997H21.0254V17.9999H22.0269V18.9997Z" fill="#53B8E8"/>
<path d="M23.0278 17.9999H22.0269V16.9999H23.0278V17.9999Z" fill="#4D91E9"/>
<path d="M22.0269 17.9999H21.0254V16.9999H22.0269V17.9999Z" fill="#53B8E8"/>
<path d="M24.029 16.9999H23.0278V15.9999H24.029V16.9999Z" fill="#4D91E9"/>
<path d="M23.0278 16.9999H22.0269V15.9999H23.0278V16.9999Z" fill="#4D91E9"/>
<path d="M22.0269 16.9999H21.0254V15.9999H22.0269V16.9999Z" fill="#53B8E8"/>
<path d="M9.01081 22.9998H8.0096V21.9998H9.01081V22.9998Z" fill="#A8E8FE"/>
<path d="M8.0096 22.9998H7.00861V21.9998H8.0096V22.9998Z" fill="#A8E8FE"/>
<path d="M12.0148 23.9998H11.013V22.9998H12.0148V23.9998Z" fill="#EBFBFF"/>
<path d="M11.013 23.9998H10.0121V22.9998H11.013V23.9998Z" fill="#EBFBFF"/>
<path d="M10.0121 23.9998H9.01081V22.9998H10.0121V23.9998Z" fill="#A8E8FE"/>
<path d="M13.016 22.9998H12.0148V21.9998H13.016V22.9998Z" fill="#EBFBFF"/>
<path d="M14.017 22.9998H13.016V21.9998H14.017V22.9998Z" fill="#A8E8FE"/>
<path d="M15.0185 22.9998H14.017V21.9998H15.0185V22.9998Z" fill="#A8E8FE"/>
<path d="M16.0195 22.9998H15.0185V21.9998H16.0195V22.9998Z" fill="#EBFBFF"/>
<path d="M17.0207 21.9998H16.0195V20.9997H17.0207V21.9998Z" fill="#EBFBFF"/>
<path d="M18.0219 21.9998H17.0207V20.9997H18.0219V21.9998Z" fill="#EBFBFF"/>
<path d="M19.0231 20.9997H18.0219V19.9997H19.0231V20.9997Z" fill="#EBFBFF"/>
<path d="M20.0244 20.9997H19.0231V19.9997H20.0244V20.9997Z" fill="#A8E8FE"/>
<path d="M21.0254 19.9997H20.0244V18.9997H21.0254V19.9997Z" fill="#A8E8FE"/>
<path d="M9.01081 21.9998H8.0096V20.9997H9.01081V21.9998Z" fill="#A8E8FE"/>
<path d="M8.0096 21.9998H7.00861V20.9997H8.0096V21.9998Z" fill="#A8E8FE"/>
<path d="M12.0148 22.9998H11.013V21.9998H12.0148V22.9998Z" fill="#EBFBFF"/>
<path d="M11.013 22.9998H10.0121V21.9998H11.013V22.9998Z" fill="#EBFBFF"/>
<path d="M10.0121 22.9998H9.01081V21.9998H10.0121V22.9998Z" fill="#A8E8FE"/>
<path d="M13.016 21.9998H12.0148V20.9997H13.016V21.9998Z" fill="#A8E8FE"/>
<path d="M14.017 21.9998H13.016V20.9997H14.017V21.9998Z" fill="#A8E8FE"/>
<path d="M15.0185 21.9998H14.017V20.9997H15.0185V21.9998Z" fill="#A8E8FE"/>
<path d="M16.0195 21.9998H15.0185V20.9997H16.0195V21.9998Z" fill="#A8E8FE"/>
<path d="M17.0207 20.9997H16.0195V19.9997H17.0207V20.9997Z" fill="#A8E8FE"/>
<path d="M18.0219 20.9997H17.0207V19.9997H18.0219V20.9997Z" fill="#EBFBFF"/>
<path d="M19.0231 19.9997H18.0219V18.9997H19.0231V19.9997Z" fill="#EBFBFF"/>
<path d="M20.0244 19.9997H19.0231V18.9997H20.0244V19.9997Z" fill="#A8E8FE"/>
<path d="M18.0219 19.9997H17.0207L17.0207 18.9997H18.0219V19.9997Z" fill="#EBFBFF"/>
<path d="M9.01081 20.9997H8.0096V19.9997H9.01081V20.9997Z" fill="#A8E8FE"/>
<path d="M9.01081 19.9997H8.0096V18.9997H9.01081V19.9997Z" fill="#A8E8FE"/>
<path d="M8.0096 20.9997H7.00861V19.9997H8.0096V20.9997Z" fill="#53B8E8"/>
<path d="M8.0096 19.9997H7.00861V18.9997H8.0096V19.9997Z" fill="#53B8E8"/>
<path d="M12.0148 21.9998H11.013V20.9997H12.0148V21.9998Z" fill="#EBFBFF"/>
<path d="M13.016 20.9997H12.0148V19.9997H13.016V20.9997Z" fill="#A8E8FE"/>
<path d="M14.017 20.9997H13.016V19.9997H14.017V20.9997Z" fill="#A8E8FE"/>
<path d="M15.0185 20.9997H14.017V19.9997H15.0185V20.9997Z" fill="#A8E8FE"/>
<path d="M16.0195 20.9997H15.0185V19.9997H16.0195V20.9997Z" fill="#A8E8FE"/>
<path d="M12.0148 20.9997H11.013V19.9997H12.0148V20.9997Z" fill="#A8E8FE"/>
<path d="M17.0207 19.9997H16.0195V18.9997H17.0207L17.0207 19.9997Z" fill="#A8E8FE"/>
<path d="M13.016 19.9997H12.0148V18.9997H13.016V19.9997Z" fill="#A8E8FE"/>
<path d="M14.017 19.9997H13.016V18.9997H14.017V19.9997Z" fill="#53B8E8"/>
<path d="M15.0185 19.9997H14.017V18.9997H15.0185V19.9997Z" fill="#A8E8FE"/>
<path d="M16.0195 19.9997H15.0185V18.9997H16.0195V19.9997Z" fill="#A8E8FE"/>
<path d="M12.0148 19.9997H11.013V18.9997H12.0148V19.9997Z" fill="#A8E8FE"/>
<path d="M11.013 21.9998H10.0121V20.9997H11.013V21.9998Z" fill="#EBFBFF"/>
<path d="M10.0121 21.9998H9.01081V20.9997H10.0121V21.9998Z" fill="#EBFBFF"/>
<path d="M11.013 20.9997H10.0121V19.9997H11.013V20.9997Z" fill="#EBFBFF"/>
<path d="M10.0121 20.9997H9.01081V19.9997H10.0121V20.9997Z" fill="#A8E8FE"/>
<path d="M11.013 19.9997H10.0121V18.9997H11.013V19.9997Z" fill="#A8E8FE"/>
<path d="M10.0121 19.9997H9.01081V18.9997H10.0121V19.9997Z" fill="#A8E8FE"/>
<path d="M21.0254 18.9997H20.0244V17.9999H21.0254V18.9997Z" fill="#A8E8FE"/>
<path d="M19.0231 18.9997H18.0219V17.9999H19.0231V18.9997Z" fill="#EBFBFF"/>
<path d="M20.0244 18.9997H19.0231V17.9999H20.0244V18.9997Z" fill="#A8E8FE"/>
<path d="M21.0254 17.9999H20.0244V16.9999H21.0254V17.9999Z" fill="#A8E8FE"/>
<path d="M17.0207 18.9997H16.0195V17.9999H17.0207L17.0207 18.9997Z" fill="#A8E8FE"/>
<path d="M18.0219 18.9997H17.0207L17.0207 17.9999H18.0219V18.9997Z" fill="#A8E8FE"/>
<path d="M19.0231 17.9999H18.0219V16.9999H19.0231V17.9999Z" fill="#EBFBFF"/>
<path d="M20.0244 17.9999H19.0231V16.9999H20.0244V17.9999Z" fill="#A8E8FE"/>
<path d="M21.0254 16.9999H20.0244V15.9999H21.0254V16.9999Z" fill="#A8E8FE"/>
<path d="M9.01081 18.9997H8.0096V17.9999H9.01081V18.9997Z" fill="#53B8E8"/>
<path d="M8.0096 18.9997H7.00861V17.9999H8.0096V18.9997Z" fill="#53B8E8"/>
<path d="M13.016 18.9997H12.0148V17.9999H13.016V18.9997Z" fill="#53B8E8"/>
<path d="M14.017 18.9997H13.016V17.9999H14.017V18.9997Z" fill="#53B8E8"/>
<path d="M15.0185 18.9997H14.017V17.9999H15.0185V18.9997Z" fill="#53B8E8"/>
<path d="M16.0195 18.9997H15.0185V17.9999H16.0195V18.9997Z" fill="#A8E8FE"/>
<path d="M17.0207 17.9999H16.0195V16.9999H17.0207V17.9999Z" fill="#A8E8FE"/>
<path d="M18.0219 17.9999H17.0207V16.9999H18.0219V17.9999Z" fill="#A8E8FE"/>
<path d="M19.0231 16.9999H18.0219V15.9999H19.0231V16.9999Z" fill="#A8E8FE"/>
<path d="M20.0244 16.9999H19.0231V15.9999H20.0244V16.9999Z" fill="#A8E8FE"/>
<path d="M9.01081 17.9999H8.0096V16.9999H9.01081V17.9999Z" fill="#53B8E8"/>
<path d="M8.0096 17.9999H7.00861V16.9999H8.0096V17.9999Z" fill="#53B8E8"/>
<path d="M12.0148 18.9997H11.013V17.9999H12.0148V18.9997Z" fill="#A8E8FE"/>
<path d="M11.013 18.9997H10.0121V17.9999H11.013V18.9997Z" fill="#A8E8FE"/>
<path d="M10.0121 18.9997H9.01081V17.9999H10.0121V18.9997Z" fill="#A8E8FE"/>
<path d="M13.016 17.9999H12.0148V16.9999H13.016V17.9999Z" fill="#53B8E8"/>
<path d="M14.017 17.9999H13.016V16.9999H14.017V17.9999Z" fill="#53B8E8"/>
<path d="M15.0185 17.9999H14.017V16.9999H15.0185V17.9999Z" fill="#53B8E8"/>
<path d="M16.0195 17.9999H15.0185V16.9999H16.0195V17.9999Z" fill="#53B8E8"/>
<path d="M17.0207 16.9999H16.0195V15.9999H17.0207V16.9999Z" fill="#A8E8FE"/>
<path d="M18.0219 16.9999H17.0207V15.9999H18.0219V16.9999Z" fill="#A8E8FE"/>
<path d="M9.01081 16.9999H8.0096V15.9999H9.01081V16.9999Z" fill="#53B8E8"/>
<path d="M8.0096 16.9999H7.00861V15.9999H8.0096V16.9999Z" fill="#4D91E9"/>
<path d="M12.0148 17.9999H11.013V16.9999H12.0148V17.9999Z" fill="#53B8E8"/>
<path d="M13.016 16.9999H12.0148V15.9999H13.016V16.9999Z" fill="#53B8E8"/>
<path d="M14.017 16.9999H13.016V15.9999H14.017V16.9999Z" fill="#53B8E8"/>
<path d="M15.0185 16.9999H14.017V15.9999H15.0185V16.9999Z" fill="#53B8E8"/>
<path d="M16.0195 16.9999H15.0185V15.9999H16.0195V16.9999Z" fill="#53B8E8"/>
<path d="M12.0148 16.9999H11.013V15.9999H12.0148V16.9999Z" fill="#53B8E8"/>
<path d="M11.013 17.9999H10.0121V16.9999H11.013V17.9999Z" fill="#A8E8FE"/>
<path d="M10.0121 17.9999H9.01081V16.9999H10.0121V17.9999Z" fill="#53B8E8"/>
<path d="M11.013 16.9999H10.0121V15.9999H11.013V16.9999Z" fill="#A8E8FE"/>
<path d="M10.0121 16.9999H9.01081V15.9999H10.0121V16.9999Z" fill="#53B8E8"/>
<path d="M23.0278 15.9999H22.0269V14.9998H23.0281L23.0278 15.9999Z" fill="#4D91E9"/>
<path d="M22.0269 15.9999H21.0254V14.9998H22.0269V15.9999Z" fill="#53B8E8"/>
<path d="M23.0281 14.9998H22.0269V13.9998H23.0281V14.9998Z" fill="#4D91E9"/>
<path d="M22.0269 14.9998H21.0254V13.9998H22.0269V14.9998Z" fill="#4D91E9"/>
<path d="M21.0254 15.9999H20.0244V14.9998H21.0254V15.9999Z" fill="#53B8E8"/>
<path d="M19.0231 15.9999H18.0219V14.9998H19.0231V15.9999Z" fill="#A8E8FE"/>
<path d="M20.0244 15.9999H19.0231V14.9998H20.0244V15.9999Z" fill="#A8E8FE"/>
<path d="M21.0254 14.9998H20.0244V13.9998H21.0254V14.9998Z" fill="#53B8E8"/>
<path d="M24.029 13.9998L23.0281 13.9998L23.0278 12.9998H24.029V13.9998Z" fill="#4D91E9"/>
<path d="M24.029 14.9998L23.0281 14.9998V13.9998L24.029 13.9998V14.9998Z" fill="#4D91E9"/>
<path d="M24.029 15.9999H23.0278L23.0281 14.9998L24.029 14.9998V15.9999Z" fill="#4D91E9"/>
<path d="M23.0281 13.9998H22.0269V12.9998H23.0278L23.0281 13.9998Z" fill="#4D91E9"/>
<path d="M22.0269 13.9998H21.0254V12.9998H22.0269V13.9998Z" fill="#4D91E9"/>
<path d="M21.0254 13.9998H20.0244V12.9998H21.0254V13.9998Z" fill="#53B8E8"/>
<path d="M23.0278 12.9998H22.0269V11.9998H23.0281L23.0278 12.9998Z" fill="#4D91E9"/>
<path d="M22.0269 12.9998H21.0254V11.9998H22.0269V12.9998Z" fill="#4D91E9"/>
<path d="M23.0281 11.9998H22.0269V10.9997H23.0281V11.9998Z" fill="#4D91E9"/>
<path d="M22.0269 10.9997L21.0254 10.9997V9.99971H22.0266L22.0269 10.9997Z" fill="#4D91E9"/>
<path d="M22.0266 9.99971H21.0254V8.99996H22.0266V9.99971Z" fill="#4D91E9"/>
<path d="M22.0269 11.9998H21.0254V10.9997L22.0269 10.9997V11.9998Z" fill="#4D91E9"/>
<path d="M21.0254 12.9998H20.0244V11.9998H21.0254V12.9998Z" fill="#53B8E8"/>
<path d="M21.0254 11.9998H20.0244V10.9997L21.0254 10.9997V11.9998Z" fill="#4D91E9"/>
<path d="M21.0254 10.9997L20.0244 10.9997V9.99971H21.0254V10.9997Z" fill="#4D91E9"/>
<path d="M21.0254 9.99971H20.0244V8.99996H21.0254V9.99971Z" fill="#4D91E9"/>
<path d="M21.0254 8.99996H20.0244V7.99993H21.0256L21.0254 8.99996Z" fill="#4D91E9"/>
<path d="M17.0207 15.9999H16.0195V14.9998H17.0207V15.9999Z" fill="#A8E8FE"/>
<path d="M18.0219 15.9999H17.0207V14.9998H18.0219V15.9999Z" fill="#A8E8FE"/>
<path d="M19.0231 14.9998H18.0219V13.9998H19.0231V14.9998Z" fill="#A8E8FE"/>
<path d="M20.0244 14.9998H19.0231V13.9998H20.0244V14.9998Z" fill="#A8E8FE"/>
<path d="M9.01081 15.9999H8.0096L8.00984 14.9998L9.01081 14.9998V15.9999Z" fill="#4D91E9"/>
<path d="M8.0096 15.9999H7.00861V14.9998L8.00984 14.9998L8.0096 15.9999Z" fill="#4D91E9"/>
<path d="M13.016 15.9999H12.0148V14.9998H13.016V15.9999Z" fill="#4D91E9"/>
<path d="M14.017 15.9999H13.016V14.9998H14.017V15.9999Z" fill="#4D91E9"/>
<path d="M15.0185 15.9999H14.017V14.9998H15.0185V15.9999Z" fill="#53B8E8"/>
<path d="M16.0195 15.9999H15.0185V14.9998H16.0195V15.9999Z" fill="#53B8E8"/>
<path d="M17.0207 14.9998H16.0195V13.9998H17.0207V14.9998Z" fill="#A8E8FE"/>
<path d="M18.0219 14.9998H17.0207V13.9998H18.0219V14.9998Z" fill="#A8E8FE"/>
<path d="M9.01081 14.9998L8.00984 14.9998V13.9998L9.01081 13.9998V14.9998Z" fill="#4D91E9"/>
<path d="M12.0148 15.9999H11.013V14.9998H12.0148V15.9999Z" fill="#53B8E8"/>
<path d="M13.016 14.9998H12.0148V13.9998H13.016V14.9998Z" fill="#4D91E9"/>
<path d="M15.0185 14.9998H14.017L14.0173 13.9998H15.0185V14.9998Z" fill="#4D91E9"/>
<path d="M16.0195 14.9998H15.0185V13.9998H16.0195V14.9998Z" fill="#53B8E8"/>
<path d="M19.0231 13.9998H18.0219V12.9998H19.0231V13.9998Z" fill="#A8E8FE"/>
<path d="M20.0244 13.9998H19.0231V12.9998H20.0244V13.9998Z" fill="#A8E8FE"/>
<path d="M18.0219 13.9998H17.0207L17.0207 12.9998H18.0219V13.9998Z" fill="#A8E8FE"/>
<path d="M17.0207 13.9998H16.0195V12.9998H17.0207L17.0207 13.9998Z" fill="#A8E8FE"/>
<path d="M16.0195 13.9998H15.0185L15.0182 12.9998H16.0195V13.9998Z" fill="#53B8E8"/>
<path d="M19.0231 12.9998H18.0219V11.9998H19.0231V12.9998Z" fill="#A8E8FE"/>
<path d="M20.0244 12.9998H19.0231V11.9998H20.0244V12.9998Z" fill="#53B8E8"/>
<path d="M17.0207 12.9998H16.0195V11.9998H17.0207L17.0207 12.9998Z" fill="#A8E8FE"/>
<path d="M18.0219 12.9998H17.0207L17.0207 11.9998H18.0219V12.9998Z" fill="#A8E8FE"/>
<path d="M19.0231 11.9998H18.0219V10.9997H19.0231V11.9998Z" fill="#53B8E8"/>
<path d="M20.0244 11.9998H19.0231V10.9997H20.0244V11.9998Z" fill="#53B8E8"/>
<path d="M16.0195 12.9998H15.0182V11.9998H16.0195V12.9998Z" fill="#53B8E8"/>
<path d="M17.0207 11.9998H16.0195V10.9997H17.0207V11.9998Z" fill="#A8E8FE"/>
<path d="M18.0219 11.9998H17.0207V10.9997H18.0219V11.9998Z" fill="#A8E8FE"/>
<path d="M19.0231 10.9997H18.0219V9.99971H19.0231V10.9997Z" fill="#53B8E8"/>
<path d="M20.0244 10.9997H19.0231V9.99971H20.0244V10.9997Z" fill="#4D91E9"/>
<path d="M16.0195 11.9998H15.0182V10.9997H16.0195V11.9998Z" fill="#53B8E8"/>
<path d="M17.0207 10.9997H16.0195V9.99971H17.0207V10.9997Z" fill="#A8E8FE"/>
<path d="M18.0219 10.9997H17.0207V9.99971H18.0219V10.9997Z" fill="#53B8E8"/>
<path d="M16.0195 10.9997H15.0182V9.99971H16.0195V10.9997Z" fill="#53B8E8"/>
<path d="M19.0231 9.99971H18.0219V8.99996H19.0231V9.99971Z" fill="#53B8E8"/>
<path d="M20.0244 9.99971H19.0231V8.99996H20.0244V9.99971Z" fill="#4D91E9"/>
<path d="M17.0207 9.99971H16.0195V8.99996H17.0207V9.99971Z" fill="#53B8E8"/>
<path d="M18.0219 9.99971H17.0207V8.99996H18.0219V9.99971Z" fill="#53B8E8"/>
<path d="M19.0231 8.99996H18.0219V7.99993H19.0231V8.99996Z" fill="#4D91E9"/>
<path d="M20.0244 8.99996H19.0231V7.99993H20.0244V8.99996Z" fill="#4D91E9"/>
<path d="M20.0244 7.99993H19.0231L19.0232 6.99991H20.0244L20.0244 7.99993Z" fill="#4D91E9"/>
<path d="M21.0256 7.99993H20.0244L20.0244 6.99991H21.0256V7.99993Z" fill="#4D91E9"/>
<path d="M20.0244 6.99991H19.0232V6.00015H20.0244V6.99991Z" fill="#4D91E9"/>
<path d="M16.0195 9.99971H15.0182V8.99996H16.0195V9.99971Z" fill="#53B8E8"/>
<path d="M17.0207 8.99996H16.0195V7.99993H17.0207V8.99996Z" fill="#53B8E8"/>
<path d="M18.0219 8.99996H17.0207V7.99993H18.0219V8.99996Z" fill="#53B8E8"/>
<path d="M16.0195 8.99996H15.0182V7.99993H16.0195V8.99996Z" fill="#4D91E9"/>
<path d="M19.0231 7.99993H18.0219V6.99991H19.0232L19.0231 7.99993Z" fill="#4D91E9"/>
<path d="M17.0207 7.99993H16.0195V6.99991H17.0207V7.99993Z" fill="#53B8E8"/>
<path d="M18.0219 7.99993H17.0207V6.99991H18.0219V7.99993Z" fill="#4D91E9"/>
<path d="M19.0232 6.99991H18.0219V6.00015H19.0232V6.99991Z" fill="#4D91E9"/>
<path d="M16.0195 7.99993H15.0182V6.99991H16.0195V7.99993Z" fill="#4D91E9"/>
<path d="M17.0207 6.99991H16.0195V6.00015H17.0207V6.99991Z" fill="#53B8E8"/>
<path d="M18.0219 6.99991H17.0207V6.00015H18.0219V6.99991Z" fill="#4D91E9"/>
<path d="M16.0195 6.99991H15.0182V6.00015H16.0195V6.99991Z" fill="#4D91E9"/>
<path d="M19.0232 6.00015H18.0219V5.00013H19.0231L19.0232 6.00015Z" fill="#4D91E9"/>
<path d="M17.0207 6.00015H16.0195V5.00013H17.0207V6.00015Z" fill="#4D91E9"/>
<path d="M18.0219 6.00015H17.0207V5.00013H18.0219V6.00015Z" fill="#4D91E9"/>
<path d="M19.0231 5.00013H18.0219V3.99983H19.0231V5.00013Z" fill="#4D91E9"/>
<path d="M16.0195 6.00015H15.0182V5.00013H16.0195V6.00015Z" fill="#4D91E9"/>
<path d="M17.0207 5.00013H16.0195V3.99983H17.0207V5.00013Z" fill="#4D91E9"/>
<path d="M18.0219 5.00013H17.0207V3.99983H18.0219V5.00013Z" fill="#4D91E9"/>
<path d="M16.0195 5.00013H15.0182V3.99983H16.0195V5.00013Z" fill="#4D91E9"/>
<path d="M17.0207 3.99983H16.0195V3.00008H17.0207V3.99983Z" fill="#4D91E9"/>
<path d="M18.0219 3.99983H17.0207V3.00008H18.0219L18.0219 3.99983Z" fill="#4D91E9"/>
<path d="M16.0195 3.99983H15.0182V3.00008H16.0195V3.99983Z" fill="#4D91E9"/>
<path d="M17.0207 3.00008H16.0195V1.99978H17.0207V3.00008Z" fill="#4D91E9"/>
<path d="M18.0219 3.00008H17.0207V1.99978H18.0219V3.00008Z" fill="#4D91E9"/>
<path d="M16.0195 3.00008H15.0182V1.99978H16.0195V3.00008Z" fill="#4D91E9"/>
<path d="M17.0207 1.99978H16.0195V0.999749H17.0207V1.99978Z" fill="#4D91E9"/>
<path d="M16.0195 1.99978H15.0182V0.999749H16.0195V1.99978Z" fill="#4D91E9"/>
<path d="M16.0195 0.999749H15.0182V0H16.0195L16.0195 0.999749Z" fill="#4D91E9"/>
<path d="M12.0148 14.9998H11.013L11.0133 13.9998L12.0148 13.9998V14.9998Z" fill="#4D91E9"/>
<path d="M12.0148 13.9998L11.0133 13.9998V12.9998H12.0145L12.0148 13.9998Z" fill="#4D91E9"/>
<path d="M12.0145 12.9998H11.0133V11.9997L12.0145 11.9998V12.9998Z" fill="#4D91E9"/>
<path d="M15.0185 13.9998H14.0173V12.9998H15.0182L15.0185 13.9998Z" fill="#4D91E9"/>
<path d="M15.0182 12.9998H14.0173V11.9998H15.0182V12.9998Z" fill="#4D91E9"/>
<path d="M15.0182 11.9998H14.0173V10.9997H15.0182V11.9998Z" fill="#4D91E9"/>
<path d="M15.0182 10.9997H14.0173V9.99971H15.0182V10.9997Z" fill="#4D91E9"/>
<path d="M15.0182 9.99971H14.0173V8.99996H15.0182V9.99971Z" fill="#4D91E9"/>
<path d="M15.0182 8.99996H14.0173V7.99993H15.0182V8.99996Z" fill="#4D91E9"/>
<path d="M15.0182 7.99993H14.0173V6.99991H15.0182V7.99993Z" fill="#4D91E9"/>
<path d="M15.0182 6.99991H14.0173V6.00015H15.0182V6.99991Z" fill="#4D91E9"/>
<path d="M12.0145 11.9998L11.0133 11.9997V10.9997L12.0145 10.9997V11.9998Z" fill="#4D91E9"/>
<path d="M12.0145 10.9997L11.0133 10.9997V9.99971H12.0145V10.9997Z" fill="#4D91E9"/>
<path d="M12.0145 9.99971H11.0133V8.99993L12.0145 8.99996V9.99971Z" fill="#4D91E9"/>
<path d="M11.013 15.9999H10.0121V14.9998H11.013V15.9999Z" fill="#53B8E8"/>
<path d="M10.0121 15.9999H9.01081V14.9998H10.0121V15.9999Z" fill="#53B8E8"/>
<path d="M11.013 14.9998H10.0121V13.9998H11.0133L11.013 14.9998Z" fill="#53B8E8"/>
<path d="M10.0121 14.9998H9.01081V13.9998H10.0121V14.9998Z" fill="#53B8E8"/>
<path d="M10.0121 13.9998H9.01081V12.9998L10.012 12.9998L10.0121 13.9998Z" fill="#53B8E8"/>
<path d="M17.0207 35.9998H16.0195V34.9998H17.0207V35.9998Z" fill="#4D91E9"/>
<path d="M18.0219 35.9998H17.0207V34.9998H18.0219V35.9998Z" fill="#4D91E9"/>
<path d="M19.0231 34.9998L18.0219 34.9998L18.0219 33.9998H19.0231V34.9998Z" fill="#4D91E9"/>
<path d="M20.0244 34.9998H19.0231V33.9998H20.0244V34.9998Z" fill="#4D91E9"/>
<path d="M21.0256 33.9998L20.0244 33.9998L20.0244 32.9998H21.0256V33.9998Z" fill="#4D91E9"/>
<path d="M22.0266 32.9997L21.0256 32.9998L21.0254 31.9997H22.0266V32.9997Z" fill="#4D91E9"/>
<path d="M23.0281 31.9997L22.0266 31.9997L22.0269 30.9997H23.0281V31.9997Z" fill="#4D91E9"/>
<path d="M24.029 30.9997L23.0281 30.9997L23.0278 29.9997H24.029V30.9997Z" fill="#4D91E9"/>
<path d="M24.029 29.9997H23.0278V28.9999H24.029V29.9997Z" fill="#4D91E9"/>
<path d="M25.0303 28.9996L24.029 28.9999L24.0291 27.9996H25.0303V28.9996Z" fill="#4D91E9"/>
<path d="M25.0303 27.9996H24.0291V26.9999H25.0303V27.9996Z" fill="#4D91E9"/>
<path d="M3.0034 27.9999H2.00219V26.9999H3.0034V27.9999Z" fill="#4D91E9"/>
<path d="M3.0034 28.9996H2.00219V27.9999H3.0034V28.9996Z" fill="#4D91E9"/>
<path d="M3.0034 29.9999H2.00219V28.9996H3.0034V29.9999Z" fill="#4D91E9"/>
<path d="M2.00219 27.9999H1.00123V26.9999H2.00219V27.9999Z" fill="#4D91E9"/>
<path d="M2.00219 28.9996H1.00123V27.9999H2.00219V28.9996Z" fill="#4D91E9"/>
<path d="M4.00464 30.9997H3.00343L3.0034 29.9999L4.00464 29.9997V30.9997Z" fill="#4D91E9"/>
<path d="M9.01081 35.9998H8.0096V34.9998H9.01081V35.9998Z" fill="#4D91E9"/>
<path d="M4.00464 31.9997H3.00343V30.9997H4.00464V31.9997Z" fill="#4D91E9"/>
<path d="M5.00614 32.9997H4.00494L4.00464 31.9997L5.00614 31.9997V32.9997Z" fill="#4D91E9"/>
<path d="M6.0071 33.9998H5.0059L5.00614 32.9997L6.0071 32.9998V33.9998Z" fill="#4D91E9"/>
<path d="M7.00861 34.9998H6.00741L6.0071 33.9998L7.00861 33.9998V34.9998Z" fill="#4D91E9"/>
<path d="M8.0096 35.9998H7.00864L7.00861 34.9998L8.0096 34.9998V35.9998Z" fill="#4D91E9"/>
<path d="M13.016 35.9998H12.0148V34.9998H13.016V35.9998Z" fill="#EBFBFF"/>
<path d="M14.017 35.9998H13.016V34.9998H14.017V35.9998Z" fill="#EBFBFF"/>
<path d="M15.0185 35.9998H14.017V34.9998H15.0185V35.9998Z" fill="#A8E8FE"/>
<path d="M16.0195 35.9998H15.0185V34.9998H16.0195V35.9998Z" fill="#53B8E8"/>
<path d="M17.0207 34.9998H16.0195V33.9998H17.0207V34.9998Z" fill="#53B8E8"/>
<path d="M18.0219 34.9998H17.0207V33.9998H18.0219L18.0219 34.9998Z" fill="#4D91E9"/>
<path d="M19.0231 33.9998H18.0219V32.9998H19.0231V33.9998Z" fill="#4D91E9"/>
<path d="M20.0244 33.9998H19.0231V32.9998H20.0244L20.0244 33.9998Z" fill="#4D91E9"/>
<path d="M21.0256 32.9998H20.0244V31.9997H21.0254L21.0256 32.9998Z" fill="#4D91E9"/>
<path d="M22.0266 31.9997H21.0254V30.9997H22.0269L22.0266 31.9997Z" fill="#4D91E9"/>
<path d="M23.0281 30.9997H22.0269V29.9997H23.0278L23.0281 30.9997Z" fill="#4D91E9"/>
<path d="M24.029 29.9997H23.0278V28.9999H24.029V29.9997Z" fill="#4D91E9"/>
<path d="M24.029 28.9999H23.0278V27.9996H24.0291L24.029 28.9999Z" fill="#4D91E9"/>
<path d="M4.00464 29.9997L3.0034 29.9999V28.9996L4.00464 28.9999V29.9997Z" fill="#4D91E9"/>
<path d="M9.01081 34.9998H8.0096V33.9998H9.01081V34.9998Z" fill="#53B8E8"/>
<path d="M4.00464 30.9997H3.00343L3.0034 29.9999L4.00464 29.9997V30.9997Z" fill="#4D91E9"/>
<path d="M3.00343 30.9997H2.00219V29.9999H3.0034L3.00343 30.9997Z" fill="#4D91E9"/>
<path d="M1.0012 25.9998H0V24.9998H1.0012V25.9998Z" fill="#4D91E9"/>
<path d="M1.0012 24.9998H0V23.9998H1.0012V24.9998Z" fill="#4D91E9"/>
<path d="M1.00123 26.9999L0 26.9999V25.9998H1.0012L1.00123 26.9999Z" fill="#4D91E9"/>
<path d="M5.00614 31.9997L4.00464 31.9997V30.9997L5.00614 30.9997V31.9997Z" fill="#4D91E9"/>
<path d="M6.0071 32.9998L5.00614 32.9997V31.9997H6.0071V32.9998Z" fill="#4D91E9"/>
<path d="M7.00861 33.9998L6.0071 33.9998V32.9998H7.00861V33.9998Z" fill="#4D91E9"/>
<path d="M8.0096 34.9998L7.00861 34.9998V33.9998H8.0096V34.9998Z" fill="#4D91E9"/>
<path d="M12.0148 35.9998H11.013V34.9998H12.0148V35.9998Z" fill="#EBFBFF"/>
<path d="M11.013 35.9998H10.0121V34.9998H11.013V35.9998Z" fill="#A8E8FE"/>
<path d="M10.0121 35.9998H9.01081V34.9998H10.0121V35.9998Z" fill="#53B8E8"/>
<path d="M13.016 34.9998H12.0148V33.9998H13.016V34.9998Z" fill="#EBFBFF"/>
<path d="M14.017 34.9998H13.016V33.9998H14.017V34.9998Z" fill="#EBFBFF"/>
<path d="M15.0185 34.9998H14.017V33.9998H15.0185V34.9998Z" fill="#A8E8FE"/>
<path d="M16.0195 34.9998H15.0185V33.9998H16.0195V34.9998Z" fill="#53B8E8"/>
<path d="M17.0207 33.9998H16.0195V32.9998H17.0207V33.9998Z" fill="#53B8E8"/>
<path d="M18.0219 33.9998H17.0207V32.9998H18.0219V33.9998Z" fill="#53B8E8"/>
<path d="M19.0231 32.9998H18.0219V31.9997H19.0231V32.9998Z" fill="#53B8E8"/>
<path d="M20.0244 32.9998H19.0231V31.9997H20.0244V32.9998Z" fill="#4D91E9"/>
<path d="M21.0254 31.9997H20.0244V30.9997H21.0254V31.9997Z" fill="#4D91E9"/>
<path d="M22.0269 30.9997H21.0254V29.9997H22.0269V30.9997Z" fill="#4D91E9"/>
<path d="M23.0278 29.9997H22.0269V28.9999H23.0278V29.9997Z" fill="#4D91E9"/>
<path d="M24.0291 27.9996H23.0278V26.9999H24.0291V27.9996Z" fill="#4D91E9"/>
<path d="M4.00464 28.9999L3.0034 28.9996V27.9999L4.00464 27.9996V28.9999Z" fill="#4D91E9"/>
<path d="M9.01081 33.9998H8.0096V32.9998H9.01081V33.9998Z" fill="#53B8E8"/>
<path d="M4.00464 29.9997L3.0034 29.9999V28.9996L4.00464 28.9999V29.9997Z" fill="#4D91E9"/>
<path d="M5.00614 30.9997L4.00464 30.9997V29.9997H5.00614V30.9997Z" fill="#4D91E9"/>
<path d="M6.0071 31.9997H5.00614V30.9997H6.0071V31.9997Z" fill="#4D91E9"/>
<path d="M7.00861 32.9998H6.0071V31.9997H7.00861V32.9998Z" fill="#4D91E9"/>
<path d="M8.0096 33.9998H7.00861V32.9998H8.0096V33.9998Z" fill="#4D91E9"/>
<path d="M12.0148 34.9998H11.013V33.9998H12.0148V34.9998Z" fill="#EBFBFF"/>
<path d="M11.013 34.9998H10.0121V33.9998H11.013V34.9998Z" fill="#A8E8FE"/>
<path d="M10.0121 34.9998H9.01081V33.9998H10.0121V34.9998Z" fill="#53B8E8"/>
<path d="M13.016 33.9998H12.0148V32.9998H13.016V33.9998Z" fill="#EBFBFF"/>
<path d="M14.017 33.9998H13.016V32.9998H14.017V33.9998Z" fill="#EBFBFF"/>
<path d="M15.0185 33.9998H14.017V32.9998H15.0185V33.9998Z" fill="#A8E8FE"/>
<path d="M16.0195 33.9998H15.0185V32.9998H16.0195V33.9998Z" fill="#A8E8FE"/>
<path d="M17.0207 32.9998H16.0195V31.9997H17.0207V32.9998Z" fill="#A8E8FE"/>
<path d="M18.0219 32.9998H17.0207V31.9997H18.0219V32.9998Z" fill="#53B8E8"/>
<path d="M19.0231 31.9997H18.0219V30.9997H19.0231V31.9997Z" fill="#53B8E8"/>
<path d="M20.0244 31.9997H19.0231V30.9997H20.0244V31.9997Z" fill="#53B8E8"/>
<path d="M21.0254 30.9997H20.0244V29.9997H21.0254V30.9997Z" fill="#53B8E8"/>
<path d="M22.0269 29.9997H21.0254V28.9999H22.0269V29.9997Z" fill="#53B8E8"/>
<path d="M23.0278 28.9999H22.0269V27.9996H23.0278V28.9999Z" fill="#4D91E9"/>
<path d="M4.00464 27.9996L3.0034 27.9999V26.9999H4.00464V27.9996Z" fill="#53B8E8"/>
<path d="M9.01081 32.9998H8.0096V31.9997H9.01081V32.9998Z" fill="#53B8E8"/>
<path d="M4.00464 28.9999L3.0034 28.9996V27.9999L4.00464 27.9996V28.9999Z" fill="#4D91E9"/>
<path d="M5.00614 29.9997H4.00464V28.9999H5.00614V29.9997Z" fill="#53B8E8"/>
<path d="M6.0071 30.9997H5.00614V29.9997H6.0071V30.9997Z" fill="#53B8E8"/>
<path d="M7.00861 31.9997H6.0071V30.9997H7.00861V31.9997Z" fill="#53B8E8"/>
<path d="M8.0096 32.9998H7.00861V31.9997H8.0096V32.9998Z" fill="#53B8E8"/>
<path d="M12.0148 33.9998H11.013V32.9998H12.0148V33.9998Z" fill="#EBFBFF"/>
<path d="M11.013 33.9998H10.0121V32.9998H11.013V33.9998Z" fill="#A8E8FE"/>
<path d="M10.0121 33.9998H9.01081V32.9998H10.0121V33.9998Z" fill="#A8E8FE"/>
<path d="M13.016 32.9998H12.0148V31.9997H13.016V32.9998Z" fill="#EBFBFF"/>
<path d="M14.017 32.9998H13.016V31.9997H14.017V32.9998Z" fill="#EBFBFF"/>
<path d="M15.0185 32.9998H14.017V31.9997H15.0185V32.9998Z" fill="#EBFBFF"/>
<path d="M16.0195 32.9998H15.0185V31.9997H16.0195V32.9998Z" fill="#A8E8FE"/>
<path d="M17.0207 31.9997H16.0195V30.9997H17.0207V31.9997Z" fill="#A8E8FE"/>
<path d="M18.0219 31.9997H17.0207V30.9997H18.0219V31.9997Z" fill="#A8E8FE"/>
<path d="M19.0231 30.9997H18.0219V29.9997H19.0231V30.9997Z" fill="#A8E8FE"/>
<path d="M20.0244 30.9997H19.0231V29.9997H20.0244V30.9997Z" fill="#53B8E8"/>
<path d="M21.0254 29.9997H20.0244V28.9999H21.0254V29.9997Z" fill="#53B8E8"/>
<path d="M22.0269 28.9999H21.0254V27.9996H22.0269V28.9999Z" fill="#53B8E8"/>
<path d="M23.0278 27.9996H22.0269V26.9999H23.0278V27.9996Z" fill="#53B8E8"/>
<path d="M9.01081 31.9997H8.0096V30.9997H9.01081V31.9997Z" fill="#A8E8FE"/>
<path d="M5.00614 28.9999H4.00464V27.9996H5.00614V28.9999Z" fill="#53B8E8"/>
<path d="M6.0071 29.9997H5.00614V28.9999H6.0071V29.9997Z" fill="#53B8E8"/>
<path d="M7.00861 30.9997H6.0071V29.9997H7.00861V30.9997Z" fill="#53B8E8"/>
<path d="M8.0096 31.9997H7.00861V30.9997H8.0096V31.9997Z" fill="#53B8E8"/>
<path d="M12.0148 32.9998H11.013V31.9997H12.0148V32.9998Z" fill="#EBFBFF"/>
<path d="M11.013 32.9998H10.0121V31.9997H11.013V32.9998Z" fill="#EBFBFF"/>
<path d="M10.0121 32.9998H9.01081V31.9997H10.0121V32.9998Z" fill="#A8E8FE"/>
<path d="M13.016 31.9997H12.0148V30.9997H13.016V31.9997Z" fill="#EBFBFF"/>
<path d="M14.017 31.9997H13.016V30.9997H14.017V31.9997Z" fill="#EBFBFF"/>
<path d="M15.0185 31.9997H14.017V30.9997H15.0185V31.9997Z" fill="#EBFBFF"/>
<path d="M16.0195 31.9997H15.0185V30.9997H16.0195V31.9997Z" fill="#A8E8FE"/>
<path d="M17.0207 30.9997H16.0195V29.9997H17.0207V30.9997Z" fill="#A8E8FE"/>
<path d="M18.0219 30.9997H17.0207V29.9997H18.0219V30.9997Z" fill="#A8E8FE"/>
<path d="M19.0231 29.9997H18.0219V28.9999H19.0231V29.9997Z" fill="#A8E8FE"/>
<path d="M20.0244 29.9997H19.0231V28.9999H20.0244V29.9997Z" fill="#A8E8FE"/>
<path d="M21.0254 28.9999H20.0244V27.9996H21.0254V28.9999Z" fill="#53B8E8"/>
<path d="M22.0269 27.9996H21.0254V26.9999H22.0269V27.9996Z" fill="#53B8E8"/>
<path d="M25.0303 26.9999H24.0291V25.9999H25.0303V26.9999Z" fill="#4D91E9"/>
<path d="M25.0303 25.9999H24.0291V24.9998H25.0303V25.9999Z" fill="#4D91E9"/>
<path d="M25.0303 24.9998H24.0291V23.9998H25.0303V24.9998Z" fill="#4D91E9"/>
<path d="M26.0312 25.9998L25.0303 25.9999V24.9998H26.0312V25.9998Z" fill="#4D91E9"/>
<path d="M26.0312 24.9998H25.0303V23.9998H26.0312V24.9998Z" fill="#4D91E9"/>
<path d="M24.0291 26.9999H23.0278V25.9999H24.0291V26.9999Z" fill="#4D91E9"/>
<path d="M24.0291 25.9999H23.0278V24.9998H24.0291V25.9999Z" fill="#4D91E9"/>
<path d="M23.0278 26.9999H22.0269V25.9999H23.0278V26.9999Z" fill="#53B8E8"/>
<path d="M22.0269 26.9999H21.0254V25.9999H22.0269V26.9999Z" fill="#53B8E8"/>
<path d="M23.0278 25.9999H22.0269V24.9998H23.0278V25.9999Z" fill="#53B8E8"/>
<path d="M22.0269 25.9999H21.0254V24.9998H22.0269V25.9999Z" fill="#53B8E8"/>
<path d="M24.0291 24.9998H23.0278V23.9998H24.0291V24.9998Z" fill="#53B8E8"/>
<path d="M23.0278 24.9998H22.0269V23.9998H23.0278V24.9998Z" fill="#53B8E8"/>
<path d="M22.0269 24.9998H21.0254V23.9998H22.0269V24.9998Z" fill="#A8E8FE"/>
<path d="M9.01081 30.9997H8.0096V29.9997H9.01081V30.9997Z" fill="#A8E8FE"/>
<path d="M5.00614 27.9996H4.00464V26.9999H5.00614V27.9996Z" fill="#53B8E8"/>
<path d="M6.0071 28.9999H5.00614V27.9996H6.0071V28.9999Z" fill="#A8E8FE"/>
<path d="M7.00861 29.9997H6.0071V28.9999H7.00861V29.9997Z" fill="#A8E8FE"/>
<path d="M8.0096 30.9997H7.00861V29.9997H8.0096V30.9997Z" fill="#A8E8FE"/>
<path d="M12.0148 31.9997H11.013V30.9997H12.0148V31.9997Z" fill="#EBFBFF"/>
<path d="M11.013 31.9997H10.0121V30.9997H11.013V31.9997Z" fill="#EBFBFF"/>
<path d="M10.0121 31.9997H9.01081V30.9997H10.0121V31.9997Z" fill="#A8E8FE"/>
<path d="M13.016 30.9997H12.0148V29.9997H13.016V30.9997Z" fill="#EBFBFF"/>
<path d="M14.017 30.9997H13.016V29.9997H14.017V30.9997Z" fill="#EBFBFF"/>
<path d="M15.0185 30.9997H14.017V29.9997H15.0185V30.9997Z" fill="#EBFBFF"/>
<path d="M16.0195 30.9997H15.0185V29.9997H16.0195V30.9997Z" fill="#EBFBFF"/>
<path d="M17.0207 29.9997H16.0195V28.9999H17.0207V29.9997Z" fill="#EBFBFF"/>
<path d="M18.0219 29.9997H17.0207V28.9999H18.0219V29.9997Z" fill="#A8E8FE"/>
<path d="M19.0231 28.9999H18.0219V27.9996H19.0231V28.9999Z" fill="#A8E8FE"/>
<path d="M20.0244 28.9999H19.0231V27.9996H20.0244V28.9999Z" fill="#A8E8FE"/>
<path d="M21.0254 27.9996H20.0244V26.9999H21.0254V27.9996Z" fill="#53B8E8"/>
<path d="M9.01081 29.9997H8.0096V28.9999H9.01081V29.9997Z" fill="#EBFBFF"/>
<path d="M6.0071 27.9996H5.00614V26.9999H6.0071V27.9996Z" fill="#53B8E8"/>
<path d="M3.0034 25.9998H2.00219V24.9998H3.0034V25.9998Z" fill="#53B8E8"/>
<path d="M3.0034 26.9999H2.00219V25.9998H3.0034V26.9999Z" fill="#53B8E8"/>
<path d="M2.00219 25.9998H1.0012V24.9998H2.00219V25.9998Z" fill="#4D91E9"/>
<path d="M2.00219 26.9999H1.00123L1.0012 25.9998H2.00219V26.9999Z" fill="#4D91E9"/>
<path d="M4.00464 26.9999H3.0034V25.9998L4.00464 25.9999V26.9999Z" fill="#53B8E8"/>
<path d="M4.00464 25.9999L3.0034 25.9998V24.9998H4.00464V25.9999Z" fill="#53B8E8"/>
<path d="M5.00614 26.9999H4.00464V25.9999H5.00614V26.9999Z" fill="#53B8E8"/>
<path d="M5.00614 25.9999H4.00464V24.9998H5.00614V25.9999Z" fill="#4D91E9"/>
<path d="M6.0071 26.9999H5.00614V25.9999H6.0071V26.9999Z" fill="#53B8E8"/>
<path d="M6.0071 25.9999H5.00614V24.9998H6.0071V25.9999Z" fill="#4D91E9"/>
<path d="M3.0034 24.9998H2.00219V23.9998H3.0034V24.9998Z" fill="#53B8E8"/>
<path d="M2.00219 24.9998H1.0012V23.9998H2.00219V24.9998Z" fill="#4D91E9"/>
<path d="M4.00464 24.9998H3.0034V23.9998H4.00464V24.9998Z" fill="#4D91E9"/>
<path d="M5.00614 24.9998H4.00464V23.9998H5.00614V24.9998Z" fill="#4D91E9"/>
<path d="M3.0034 23.9998H2.00219V22.9998H3.0034V23.9998Z" fill="#4D91E9"/>
<path d="M2.00219 23.9998H1.0012L1.00123 22.9998H2.00219V23.9998Z" fill="#4D91E9"/>
<path d="M1.0012 23.9998H0V22.9998H1.00123L1.0012 23.9998Z" fill="#4D91E9"/>
<path d="M4.00464 23.9998H3.0034V22.9998H4.00464V23.9998Z" fill="#4D91E9"/>
<path d="M4.00464 22.9998H3.0034L3.00343 21.9998H4.00464V22.9998Z" fill="#4D91E9"/>
<path d="M2.00219 22.9998H1.00123V21.9998H2.00244L2.00219 22.9998Z" fill="#4D91E9"/>
<path d="M1.00123 22.9998H0V21.9998H1.00123V22.9998Z" fill="#4D91E9"/>
<path d="M3.0034 22.9998H2.00219L2.00244 21.9998H3.00343L3.0034 22.9998Z" fill="#4D91E9"/>
<path d="M2.00244 21.9998H1.00123V20.9997H2.00244V21.9998Z" fill="#4D91E9"/>
<path d="M2.00244 20.9997H1.00123V19.9997H2.00244V20.9997Z" fill="#4D91E9"/>
<path d="M2.00244 19.9997H1.00123V18.9997H2.00244V19.9997Z" fill="#4D91E9"/>
<path d="M3.00343 21.9998H2.00244V20.9997H3.0034L3.00343 21.9998Z" fill="#4D91E9"/>
<path d="M3.0034 20.9997H2.00244V19.9997H3.0034V20.9997Z" fill="#4D91E9"/>
<path d="M3.0034 19.9997H2.00244V18.9997H3.0034V19.9997Z" fill="#4D91E9"/>
<path d="M3.0034 18.9997H2.00244L2.00219 17.9999H3.0034V18.9997Z" fill="#4D91E9"/>
<path d="M5.00614 23.9998H4.00464V22.9998H5.00614V23.9998Z" fill="#4D91E9"/>
<path d="M7.00861 28.9999H6.0071V27.9996H7.00861V28.9999Z" fill="#A8E8FE"/>
<path d="M8.0096 29.9997H7.00861V28.9999H8.0096V29.9997Z" fill="#A8E8FE"/>
<path d="M12.0148 30.9997H11.013V29.9997H12.0148V30.9997Z" fill="#EBFBFF"/>
<path d="M11.013 30.9997H10.0121V29.9997H11.013V30.9997Z" fill="#EBFBFF"/>
<path d="M10.0121 30.9997H9.01081V29.9997H10.0121V30.9997Z" fill="#EBFBFF"/>
<path d="M13.016 29.9997H12.0148V28.9999H13.016V29.9997Z" fill="#EBFBFF"/>
<path d="M14.017 29.9997H13.016V28.9999H14.017V29.9997Z" fill="#EBFBFF"/>
<path d="M15.0185 29.9997H14.017V28.9999H15.0185V29.9997Z" fill="#EBFBFF"/>
<path d="M16.0195 29.9997H15.0185V28.9999H16.0195V29.9997Z" fill="#EBFBFF"/>
<path d="M17.0207 28.9999H16.0195V27.9996H17.0207V28.9999Z" fill="#EBFBFF"/>
<path d="M18.0219 28.9999H17.0207V27.9996H18.0219V28.9999Z" fill="#EBFBFF"/>
<path d="M19.0231 27.9996H18.0219V26.9999H19.0231V27.9996Z" fill="#EBFBFF"/>
<path d="M20.0244 27.9996H19.0231V26.9999H20.0244V27.9996Z" fill="#A8E8FE"/>
<path d="M18.0219 27.9996H17.0207L17.0207 26.9999H18.0219V27.9996Z" fill="#EBFBFF"/>
<path d="M9.01081 28.9999H8.0096V27.9996H9.01081V28.9999Z" fill="#A8E8FE"/>
<path d="M9.01081 27.9996H8.0096V26.9999H9.01081V27.9996Z" fill="#A8E8FE"/>
<path d="M7.00861 27.9996H6.0071V26.9999H7.00861V27.9996Z" fill="#53B8E8"/>
<path d="M8.0096 28.9999H7.00861V27.9996H8.0096V28.9999Z" fill="#A8E8FE"/>
<path d="M8.0096 27.9996H7.00861V26.9999H8.0096V27.9996Z" fill="#53B8E8"/>
<path d="M12.0148 29.9997H11.013V28.9999H12.0148V29.9997Z" fill="#EBFBFF"/>
<path d="M13.016 28.9999H12.0148V27.9996H13.016V28.9999Z" fill="#EBFBFF"/>
<path d="M14.017 28.9999H13.016V27.9996H14.017V28.9999Z" fill="#EBFBFF"/>
<path d="M15.0185 28.9999H14.017V27.9996H15.0185V28.9999Z" fill="#EBFBFF"/>
<path d="M16.0195 28.9999H15.0185V27.9996H16.0195V28.9999Z" fill="#EBFBFF"/>
<path d="M12.0148 28.9999H11.013V27.9996H12.0148V28.9999Z" fill="#EBFBFF"/>
<path d="M17.0207 27.9996H16.0195V26.9999H17.0207L17.0207 27.9996Z" fill="#EBFBFF"/>
<path d="M13.016 27.9996H12.0148V26.9999H13.016V27.9996Z" fill="#EBFBFF"/>
<path d="M14.017 27.9996H13.016V26.9999H14.017V27.9996Z" fill="#EBFBFF"/>
<path d="M15.0185 27.9996H14.017V26.9999H15.0185V27.9996Z" fill="#EBFBFF"/>
<path d="M16.0195 27.9996H15.0185V26.9999H16.0195V27.9996Z" fill="#EBFBFF"/>
<path d="M12.0148 27.9996H11.013V26.9999H12.0148V27.9996Z" fill="#EBFBFF"/>
<path d="M11.013 29.9997H10.0121V28.9999H11.013V29.9997Z" fill="#EBFBFF"/>
<path d="M10.0121 29.9997H9.01081V28.9999H10.0121V29.9997Z" fill="#EBFBFF"/>
<path d="M11.013 28.9999H10.0121V27.9996H11.013V28.9999Z" fill="#EBFBFF"/>
<path d="M10.0121 28.9999H9.01081V27.9996H10.0121V28.9999Z" fill="#EBFBFF"/>
<path d="M11.013 27.9996H10.0121V26.9999H11.013V27.9996Z" fill="#EBFBFF"/>
<path d="M10.0121 27.9996H9.01081V26.9999H10.0121V27.9996Z" fill="#EBFBFF"/>
<path d="M21.0254 26.9999H20.0244V25.9999H21.0254V26.9999Z" fill="#A8E8FE"/>
<path d="M19.0231 26.9999H18.0219V25.9999H19.0231V26.9999Z" fill="#EBFBFF"/>
<path d="M20.0244 26.9999H19.0231V25.9999H20.0244V26.9999Z" fill="#A8E8FE"/>
<path d="M21.0254 25.9999H20.0244V24.9998H21.0254V25.9999Z" fill="#A8E8FE"/>
<path d="M7.00861 26.9999H6.0071V25.9999H7.00861V26.9999Z" fill="#4D91E9"/>
<path d="M6.0071 24.9998H5.00614V23.9998H6.0071V24.9998Z" fill="#4D91E9"/>
<path d="M7.00861 25.9999H6.0071V24.9998H7.00861V25.9999Z" fill="#4D91E9"/>
<path d="M7.00861 24.9998H6.0071V23.9998H7.00861V24.9998Z" fill="#4D91E9"/>
<path d="M7.00861 23.9998H6.0071L6.00741 22.9998H7.00861V23.9998Z" fill="#53B8E8"/>
<path d="M7.00861 22.9998H6.00741V21.9998H7.00861V22.9998Z" fill="#53B8E8"/>
<path d="M6.00741 22.9998H5.00614L5.0059 21.9998H6.00741V22.9998Z" fill="#4D91E9"/>
<path d="M6.0071 23.9998H5.00614V22.9998H6.00741L6.0071 23.9998Z" fill="#4D91E9"/>
<path d="M7.00861 21.9998H6.00741V20.9997H7.00861V21.9998Z" fill="#53B8E8"/>
<path d="M7.00861 20.9997H6.00741V19.9997H7.00861V20.9997Z" fill="#53B8E8"/>
<path d="M7.00861 19.9997H6.00741V18.9997H7.00861V19.9997Z" fill="#4D91E9"/>
<path d="M7.00861 18.9997H6.00741V17.9999H7.00861V18.9997Z" fill="#4D91E9"/>
<path d="M6.00741 21.9998H5.0059V20.9997H6.00741V21.9998Z" fill="#4D91E9"/>
<path d="M6.00741 20.9997H5.0059V19.9997H6.00741V20.9997Z" fill="#4D91E9"/>
<path d="M6.00741 19.9997H5.0059V18.9997H6.00741V19.9997Z" fill="#4D91E9"/>
<path d="M6.00741 18.9997H5.0059V17.9999H6.00741V18.9997Z" fill="#4D91E9"/>
<path d="M7.00861 17.9999H6.00741V16.9999H7.00861V17.9999Z" fill="#4D91E9"/>
<path d="M7.00861 16.9999H6.00741V15.9999H7.00861V16.9999Z" fill="#4D91E9"/>
<path d="M7.00861 15.9999H6.00741V14.9998H7.00861V15.9999Z" fill="#4D91E9"/>
<path d="M8.00984 14.9998L7.00861 14.9998L7.00864 13.9998H8.00984V14.9998Z" fill="#4D91E9"/>
<path d="M9.01081 13.9998L8.00984 13.9998L8.0096 12.9998H9.01081V13.9998Z" fill="#4D91E9"/>
<path d="M8.00984 13.9998H7.00864V12.9998H8.0096L8.00984 13.9998Z" fill="#4D91E9"/>
<path d="M10.012 12.9998L9.01081 12.9998L9.01084 11.9998H10.012V12.9998Z" fill="#53B8E8"/>
<path d="M9.01081 12.9998H8.0096V11.9998H9.01084L9.01081 12.9998Z" fill="#4D91E9"/>
<path d="M10.012 11.9998H9.01084V10.9997H10.012V11.9998Z" fill="#4D91E9"/>
<path d="M9.01084 11.9998H8.0096V10.9997H9.01084V11.9998Z" fill="#4D91E9"/>
<path d="M10.012 10.9997H9.01084V9.99971H10.012V10.9997Z" fill="#4D91E9"/>
<path d="M10.012 9.99971H9.01084V8.99996H10.012V9.99971Z" fill="#4D91E9"/>
<path d="M11.0133 8.99993L10.012 8.99996L10.0121 7.99993H11.0133V8.99993Z" fill="#4D91E9"/>
<path d="M11.0133 7.99993H10.0121V6.99991H11.0133V7.99993Z" fill="#4D91E9"/>
<path d="M10.0121 7.99993L9.01084 7.9999V6.99991H10.0121V7.99993Z" fill="#4D91E9"/>
<path d="M10.012 8.99996H9.01084V7.9999L10.0121 7.99993L10.012 8.99996Z" fill="#4D91E9"/>
<path d="M10.0121 6.99991H9.01084V6.00015H10.012L10.0121 6.99991Z" fill="#4D91E9"/>
<path d="M11.0133 10.9997L10.012 10.9997V9.99971H11.0133V10.9997Z" fill="#4D91E9"/>
<path d="M11.0133 9.99971H10.012V8.99996L11.0133 8.99993V9.99971Z" fill="#4D91E9"/>
<path d="M11.0133 11.9997L10.012 11.9998V10.9997L11.0133 10.9997V11.9997Z" fill="#53B8E8"/>
<path d="M11.0133 13.9998H10.0121L10.012 12.9998L11.0133 12.9998V13.9998Z" fill="#4D91E9"/>
<path d="M11.0133 12.9998L10.012 12.9998V11.9998L11.0133 11.9997V12.9998Z" fill="#53B8E8"/>
<path d="M17.0207 26.9999H16.0195V25.9999H17.0207L17.0207 26.9999Z" fill="#EBFBFF"/>
<path d="M18.0219 26.9999H17.0207L17.0207 25.9999H18.0219V26.9999Z" fill="#EBFBFF"/>
<path d="M19.0231 25.9999H18.0219V24.9998H19.0231V25.9999Z" fill="#EBFBFF"/>
<path d="M20.0244 25.9999H19.0231V24.9998H20.0244V25.9999Z" fill="#A8E8FE"/>
<path d="M21.0254 24.9998H20.0244V23.9998H21.0254V24.9998Z" fill="#A8E8FE"/>
<path d="M9.01081 26.9999H8.0096V25.9999H9.01081V26.9999Z" fill="#A8E8FE"/>
<path d="M8.0096 26.9999H7.00861V25.9999H8.0096V26.9999Z" fill="#53B8E8"/>
<path d="M13.016 26.9999H12.0148V25.9999H13.016V26.9999Z" fill="#EBFBFF"/>
<path d="M14.017 26.9999H13.016V25.9999H14.017V26.9999Z" fill="#EBFBFF"/>
<path d="M15.0185 26.9999H14.017V25.9999H15.0185V26.9999Z" fill="#EBFBFF"/>
<path d="M16.0195 26.9999H15.0185V25.9999H16.0195V26.9999Z" fill="#EBFBFF"/>
<path d="M17.0207 25.9999H16.0195V24.9998H17.0207V25.9999Z" fill="#EBFBFF"/>
<path d="M18.0219 25.9999H17.0207V24.9998H18.0219V25.9999Z" fill="#EBFBFF"/>
<path d="M19.0231 24.9998H18.0219V23.9998H19.0231V24.9998Z" fill="#EBFBFF"/>
<path d="M20.0244 24.9998H19.0231V23.9998H20.0244V24.9998Z" fill="#A8E8FE"/>
<path d="M9.01081 25.9999H8.0096V24.9998H9.01081V25.9999Z" fill="#A8E8FE"/>
<path d="M8.0096 25.9999H7.00861V24.9998H8.0096V25.9999Z" fill="#53B8E8"/>
<path d="M12.0148 26.9999H11.013V25.9999H12.0148V26.9999Z" fill="#EBFBFF"/>
<path d="M11.013 26.9999H10.0121V25.9999H11.013V26.9999Z" fill="#EBFBFF"/>
<path d="M10.0121 26.9999H9.01081V25.9999H10.0121V26.9999Z" fill="#A8E8FE"/>
<path d="M13.016 25.9999H12.0148V24.9998H13.016V25.9999Z" fill="#EBFBFF"/>
<path d="M14.017 25.9999H13.016V24.9998H14.017V25.9999Z" fill="#EBFBFF"/>
<path d="M15.0185 25.9999H14.017V24.9998H15.0185V25.9999Z" fill="#EBFBFF"/>
<path d="M16.0195 25.9999H15.0185V24.9998H16.0195V25.9999Z" fill="#EBFBFF"/>
<path d="M17.0207 24.9998H16.0195V23.9998H17.0207V24.9998Z" fill="#EBFBFF"/>
<path d="M18.0219 24.9998H17.0207V23.9998H18.0219V24.9998Z" fill="#EBFBFF"/>
<path d="M9.01081 24.9998H8.0096V23.9998H9.01081V24.9998Z" fill="#A8E8FE"/>
<path d="M8.0096 24.9998H7.00861V23.9998H8.0096V24.9998Z" fill="#53B8E8"/>
<path d="M12.0148 25.9999H11.013V24.9998H12.0148V25.9999Z" fill="#EBFBFF"/>
<path d="M13.016 24.9998H12.0148V23.9998H13.016V24.9998Z" fill="#EBFBFF"/>
<path d="M14.017 24.9998H13.016V23.9998H14.017V24.9998Z" fill="#EBFBFF"/>
<path d="M15.0185 24.9998H14.017V23.9998H15.0185V24.9998Z" fill="#EBFBFF"/>
<path d="M16.0195 24.9998H15.0185V23.9998H16.0195V24.9998Z" fill="#EBFBFF"/>
<path d="M12.0148 24.9998H11.013V23.9998H12.0148V24.9998Z" fill="#EBFBFF"/>
<path d="M11.013 25.9999H10.0121V24.9998H11.013V25.9999Z" fill="#A8E8FE"/>
<path d="M10.0121 25.9999H9.01081V24.9998H10.0121V25.9999Z" fill="#A8E8FE"/>
<path d="M11.013 24.9998H10.0121V23.9998H11.013V24.9998Z" fill="#A8E8FE"/>
<path d="M10.0121 24.9998H9.01081V23.9998H10.0121V24.9998Z" fill="#A8E8FE"/>
<path d="M24.029 22.9997H23.0278V21.9998H24.029V22.9997Z" fill="#53B8E8"/>
<path d="M24.029 21.9998H23.0278V20.9997H24.029V21.9998Z" fill="#4D91E9"/>
<path d="M22.0269 23.9998H21.0254V22.9998H22.0266L22.0269 23.9998Z" fill="#A8E8FE"/>
<path d="M23.0278 22.9997L22.0266 22.9998L22.0269 21.9998H23.0278V22.9997Z" fill="#53B8E8"/>
<path d="M24.029 21.9998H23.0278V20.9997H24.029V21.9998Z" fill="#4D91E9"/>
<path d="M24.029 20.9997H23.0278V19.9997H24.029V20.9997Z" fill="#4D91E9"/>
<path d="M21.0254 23.9998H20.0244V22.9998H21.0254V23.9998Z" fill="#A8E8FE"/>
<path d="M22.0266 22.9998H21.0254V21.9998H22.0269L22.0266 22.9998Z" fill="#A8E8FE"/>
<path d="M23.0278 21.9998H22.0269V20.9997H23.0278V21.9998Z" fill="#53B8E8"/>
<path d="M24.029 19.9997H23.0278V18.9997H24.029V19.9997Z" fill="#4D91E9"/>
<path d="M25.0303 21.9997L24.029 21.9998V20.9997H25.0303V21.9997Z" fill="#4D91E9"/>
<path d="M25.0303 21.9997L24.029 21.9998V20.9997H25.0303V21.9997Z" fill="#4D91E9"/>
<path d="M25.0303 20.9997H24.029V19.9997H25.0303V20.9997Z" fill="#4D91E9"/>
<path d="M25.0303 19.9997H24.029V18.9997H25.0303V19.9997Z" fill="#4D91E9"/>
<path d="M19.0231 23.9998H18.0219V22.9998H19.0231V23.9998Z" fill="#EBFBFF"/>
<path d="M20.0244 23.9998H19.0231V22.9998H20.0244V23.9998Z" fill="#EBFBFF"/>
<path d="M21.0254 22.9998H20.0244V21.9998H21.0254V22.9998Z" fill="#A8E8FE"/>
<path d="M26.0312 23.9998H25.0303L25.03 22.9998H26.0312V23.9998Z" fill="#4D91E9"/>
<path d="M25.0303 23.9998H24.0291L24.029 22.9997L25.03 22.9998L25.0303 23.9998Z" fill="#4D91E9"/>
<path d="M24.0291 23.9998H23.0278V22.9997H24.029L24.0291 23.9998Z" fill="#53B8E8"/>
<path d="M23.0278 23.9998H22.0269L22.0266 22.9998L23.0278 22.9997V23.9998Z" fill="#A8E8FE"/>
<path d="M26.0312 22.9998H25.03L25.0303 21.9997L26.0312 21.9998V22.9998Z" fill="#4D91E9"/>
<path d="M26.0312 21.9998L25.0303 21.9997V20.9997H26.0312V21.9998Z" fill="#4D91E9"/>
<path d="M25.03 22.9998L24.029 22.9997V21.9998L25.0303 21.9997L25.03 22.9998Z" fill="#4D91E9"/>
<path d="M22.0269 21.9998H21.0254V20.9997H22.0269V21.9998Z" fill="#A8E8FE"/>
<path d="M23.0278 20.9997H22.0269V19.9997H23.0278V20.9997Z" fill="#53B8E8"/>
<path d="M17.0207 23.9998H16.0195V22.9998H17.0207V23.9998Z" fill="#EBFBFF"/>
<path d="M18.0219 23.9998H17.0207V22.9998H18.0219V23.9998Z" fill="#EBFBFF"/>
<path d="M19.0231 22.9998H18.0219V21.9998H19.0231V22.9998Z" fill="#A8E8FE"/>
<path d="M20.0244 22.9998H19.0231V21.9998H20.0244V22.9998Z" fill="#A8E8FE"/>
<path d="M21.0254 21.9998H20.0244V20.9997H21.0254V21.9998Z" fill="#A8E8FE"/>
<path d="M22.0269 20.9997H21.0254V19.9997H22.0269V20.9997Z" fill="#53B8E8"/>
<path d="M23.0278 19.9997H22.0269V18.9997H23.0278V19.9997Z" fill="#4D91E9"/>
<path d="M9.01081 23.9998H8.0096V22.9998H9.01081V23.9998Z" fill="#A8E8FE"/>
<path d="M8.0096 23.9998H7.00861V22.9998H8.0096V23.9998Z" fill="#53B8E8"/>
<path d="M13.016 23.9998H12.0148V22.9998H13.016V23.9998Z" fill="#EBFBFF"/>
<path d="M14.017 23.9998H13.016V22.9998H14.017V23.9998Z" fill="#EBFBFF"/>
<path d="M15.0185 23.9998H14.017V22.9998H15.0185V23.9998Z" fill="#A8E8FE"/>
<path d="M16.0195 23.9998H15.0185V22.9998H16.0195V23.9998Z" fill="#EBFBFF"/>
<path d="M17.0207 22.9998H16.0195V21.9998H17.0207V22.9998Z" fill="#EBFBFF"/>
<path d="M18.0219 22.9998H17.0207V21.9998H18.0219V22.9998Z" fill="#EBFBFF"/>
<path d="M19.0231 21.9998H18.0219V20.9997H19.0231V21.9998Z" fill="#EBFBFF"/>
<path d="M20.0244 21.9998H19.0231V20.9997H20.0244V21.9998Z" fill="#A8E8FE"/>
<path d="M21.0254 20.9997H20.0244V19.9997H21.0254V20.9997Z" fill="#A8E8FE"/>
<path d="M22.0269 19.9997H21.0254V18.9997H22.0269V19.9997Z" fill="#53B8E8"/>
<path d="M24.029 18.9997H23.0278V17.9999H24.029V18.9997Z" fill="#4D91E9"/>
<path d="M24.029 17.9999H23.0278V16.9999H24.029V17.9999Z" fill="#4D91E9"/>
<path d="M25.0303 18.9997H24.029V17.9999H25.0303V18.9997Z" fill="#4D91E9"/>
<path d="M25.0303 17.9999H24.029V16.9999H25.0303V17.9999Z" fill="#4D91E9"/>
<path d="M23.0278 18.9997H22.0269V17.9999H23.0278V18.9997Z" fill="#4D91E9"/>
<path d="M22.0269 18.9997H21.0254V17.9999H22.0269V18.9997Z" fill="#53B8E8"/>
<path d="M23.0278 17.9999H22.0269V16.9999H23.0278V17.9999Z" fill="#4D91E9"/>
<path d="M22.0269 17.9999H21.0254V16.9999H22.0269V17.9999Z" fill="#53B8E8"/>
<path d="M24.029 16.9999H23.0278V15.9999H24.029V16.9999Z" fill="#4D91E9"/>
<path d="M23.0278 16.9999H22.0269V15.9999H23.0278V16.9999Z" fill="#4D91E9"/>
<path d="M22.0269 16.9999H21.0254V15.9999H22.0269V16.9999Z" fill="#53B8E8"/>
<path d="M9.01081 22.9998H8.0096V21.9998H9.01081V22.9998Z" fill="#A8E8FE"/>
<path d="M8.0096 22.9998H7.00861V21.9998H8.0096V22.9998Z" fill="#A8E8FE"/>
<path d="M12.0148 23.9998H11.013V22.9998H12.0148V23.9998Z" fill="#EBFBFF"/>
<path d="M11.013 23.9998H10.0121V22.9998H11.013V23.9998Z" fill="#EBFBFF"/>
<path d="M10.0121 23.9998H9.01081V22.9998H10.0121V23.9998Z" fill="#A8E8FE"/>
<path d="M13.016 22.9998H12.0148V21.9998H13.016V22.9998Z" fill="#EBFBFF"/>
<path d="M14.017 22.9998H13.016V21.9998H14.017V22.9998Z" fill="#A8E8FE"/>
<path d="M15.0185 22.9998H14.017V21.9998H15.0185V22.9998Z" fill="#A8E8FE"/>
<path d="M16.0195 22.9998H15.0185V21.9998H16.0195V22.9998Z" fill="#EBFBFF"/>
<path d="M17.0207 21.9998H16.0195V20.9997H17.0207V21.9998Z" fill="#EBFBFF"/>
<path d="M18.0219 21.9998H17.0207V20.9997H18.0219V21.9998Z" fill="#EBFBFF"/>
<path d="M19.0231 20.9997H18.0219V19.9997H19.0231V20.9997Z" fill="#EBFBFF"/>
<path d="M20.0244 20.9997H19.0231V19.9997H20.0244V20.9997Z" fill="#A8E8FE"/>
<path d="M21.0254 19.9997H20.0244V18.9997H21.0254V19.9997Z" fill="#A8E8FE"/>
<path d="M9.01081 21.9998H8.0096V20.9997H9.01081V21.9998Z" fill="#A8E8FE"/>
<path d="M8.0096 21.9998H7.00861V20.9997H8.0096V21.9998Z" fill="#A8E8FE"/>
<path d="M12.0148 22.9998H11.013V21.9998H12.0148V22.9998Z" fill="#EBFBFF"/>
<path d="M11.013 22.9998H10.0121V21.9998H11.013V22.9998Z" fill="#EBFBFF"/>
<path d="M10.0121 22.9998H9.01081V21.9998H10.0121V22.9998Z" fill="#A8E8FE"/>
<path d="M13.016 21.9998H12.0148V20.9997H13.016V21.9998Z" fill="#A8E8FE"/>
<path d="M14.017 21.9998H13.016V20.9997H14.017V21.9998Z" fill="#A8E8FE"/>
<path d="M15.0185 21.9998H14.017V20.9997H15.0185V21.9998Z" fill="#A8E8FE"/>
<path d="M16.0195 21.9998H15.0185V20.9997H16.0195V21.9998Z" fill="#A8E8FE"/>
<path d="M17.0207 20.9997H16.0195V19.9997H17.0207V20.9997Z" fill="#A8E8FE"/>
<path d="M18.0219 20.9997H17.0207V19.9997H18.0219V20.9997Z" fill="#EBFBFF"/>
<path d="M19.0231 19.9997H18.0219V18.9997H19.0231V19.9997Z" fill="#EBFBFF"/>
<path d="M20.0244 19.9997H19.0231V18.9997H20.0244V19.9997Z" fill="#A8E8FE"/>
<path d="M18.0219 19.9997H17.0207L17.0207 18.9997H18.0219V19.9997Z" fill="#EBFBFF"/>
<path d="M9.01081 20.9997H8.0096V19.9997H9.01081V20.9997Z" fill="#A8E8FE"/>
<path d="M9.01081 19.9997H8.0096V18.9997H9.01081V19.9997Z" fill="#A8E8FE"/>
<path d="M8.0096 20.9997H7.00861V19.9997H8.0096V20.9997Z" fill="#53B8E8"/>
<path d="M8.0096 19.9997H7.00861V18.9997H8.0096V19.9997Z" fill="#53B8E8"/>
<path d="M12.0148 21.9998H11.013V20.9997H12.0148V21.9998Z" fill="#EBFBFF"/>
<path d="M13.016 20.9997H12.0148V19.9997H13.016V20.9997Z" fill="#A8E8FE"/>
<path d="M14.017 20.9997H13.016V19.9997H14.017V20.9997Z" fill="#A8E8FE"/>
<path d="M15.0185 20.9997H14.017V19.9997H15.0185V20.9997Z" fill="#A8E8FE"/>
<path d="M16.0195 20.9997H15.0185V19.9997H16.0195V20.9997Z" fill="#A8E8FE"/>
<path d="M12.0148 20.9997H11.013V19.9997H12.0148V20.9997Z" fill="#A8E8FE"/>
<path d="M17.0207 19.9997H16.0195V18.9997H17.0207L17.0207 19.9997Z" fill="#A8E8FE"/>
<path d="M13.016 19.9997H12.0148V18.9997H13.016V19.9997Z" fill="#A8E8FE"/>
<path d="M14.017 19.9997H13.016V18.9997H14.017V19.9997Z" fill="#53B8E8"/>
<path d="M15.0185 19.9997H14.017V18.9997H15.0185V19.9997Z" fill="#A8E8FE"/>
<path d="M16.0195 19.9997H15.0185V18.9997H16.0195V19.9997Z" fill="#A8E8FE"/>
<path d="M12.0148 19.9997H11.013V18.9997H12.0148V19.9997Z" fill="#A8E8FE"/>
<path d="M11.013 21.9998H10.0121V20.9997H11.013V21.9998Z" fill="#EBFBFF"/>
<path d="M10.0121 21.9998H9.01081V20.9997H10.0121V21.9998Z" fill="#EBFBFF"/>
<path d="M11.013 20.9997H10.0121V19.9997H11.013V20.9997Z" fill="#EBFBFF"/>
<path d="M10.0121 20.9997H9.01081V19.9997H10.0121V20.9997Z" fill="#A8E8FE"/>
<path d="M11.013 19.9997H10.0121V18.9997H11.013V19.9997Z" fill="#A8E8FE"/>
<path d="M10.0121 19.9997H9.01081V18.9997H10.0121V19.9997Z" fill="#A8E8FE"/>
<path d="M21.0254 18.9997H20.0244V17.9999H21.0254V18.9997Z" fill="#A8E8FE"/>
<path d="M19.0231 18.9997H18.0219V17.9999H19.0231V18.9997Z" fill="#EBFBFF"/>
<path d="M20.0244 18.9997H19.0231V17.9999H20.0244V18.9997Z" fill="#A8E8FE"/>
<path d="M21.0254 17.9999H20.0244V16.9999H21.0254V17.9999Z" fill="#A8E8FE"/>
<path d="M17.0207 18.9997H16.0195V17.9999H17.0207L17.0207 18.9997Z" fill="#A8E8FE"/>
<path d="M18.0219 18.9997H17.0207L17.0207 17.9999H18.0219V18.9997Z" fill="#A8E8FE"/>
<path d="M19.0231 17.9999H18.0219V16.9999H19.0231V17.9999Z" fill="#EBFBFF"/>
<path d="M20.0244 17.9999H19.0231V16.9999H20.0244V17.9999Z" fill="#A8E8FE"/>
<path d="M21.0254 16.9999H20.0244V15.9999H21.0254V16.9999Z" fill="#A8E8FE"/>
<path d="M9.01081 18.9997H8.0096V17.9999H9.01081V18.9997Z" fill="#53B8E8"/>
<path d="M8.0096 18.9997H7.00861V17.9999H8.0096V18.9997Z" fill="#53B8E8"/>
<path d="M13.016 18.9997H12.0148V17.9999H13.016V18.9997Z" fill="#53B8E8"/>
<path d="M14.017 18.9997H13.016V17.9999H14.017V18.9997Z" fill="#53B8E8"/>
<path d="M15.0185 18.9997H14.017V17.9999H15.0185V18.9997Z" fill="#53B8E8"/>
<path d="M16.0195 18.9997H15.0185V17.9999H16.0195V18.9997Z" fill="#A8E8FE"/>
<path d="M17.0207 17.9999H16.0195V16.9999H17.0207V17.9999Z" fill="#A8E8FE"/>
<path d="M18.0219 17.9999H17.0207V16.9999H18.0219V17.9999Z" fill="#A8E8FE"/>
<path d="M19.0231 16.9999H18.0219V15.9999H19.0231V16.9999Z" fill="#A8E8FE"/>
<path d="M20.0244 16.9999H19.0231V15.9999H20.0244V16.9999Z" fill="#A8E8FE"/>
<path d="M9.01081 17.9999H8.0096V16.9999H9.01081V17.9999Z" fill="#53B8E8"/>
<path d="M8.0096 17.9999H7.00861V16.9999H8.0096V17.9999Z" fill="#53B8E8"/>
<path d="M12.0148 18.9997H11.013V17.9999H12.0148V18.9997Z" fill="#A8E8FE"/>
<path d="M11.013 18.9997H10.0121V17.9999H11.013V18.9997Z" fill="#A8E8FE"/>
<path d="M10.0121 18.9997H9.01081V17.9999H10.0121V18.9997Z" fill="#A8E8FE"/>
<path d="M13.016 17.9999H12.0148V16.9999H13.016V17.9999Z" fill="#53B8E8"/>
<path d="M14.017 17.9999H13.016V16.9999H14.017V17.9999Z" fill="#53B8E8"/>
<path d="M15.0185 17.9999H14.017V16.9999H15.0185V17.9999Z" fill="#53B8E8"/>
<path d="M16.0195 17.9999H15.0185V16.9999H16.0195V17.9999Z" fill="#53B8E8"/>
<path d="M17.0207 16.9999H16.0195V15.9999H17.0207V16.9999Z" fill="#53B8E8"/>
<path d="M18.0219 16.9999H17.0207V15.9999H18.0219V16.9999Z" fill="#A8E8FE"/>
<path d="M9.01081 16.9999H8.0096V15.9999H9.01081V16.9999Z" fill="#53B8E8"/>
<path d="M8.0096 16.9999H7.00861V15.9999H8.0096V16.9999Z" fill="#4D91E9"/>
<path d="M12.0148 17.9999H11.013V16.9999H12.0148V17.9999Z" fill="#53B8E8"/>
<path d="M13.016 16.9999H12.0148V15.9999H13.016V16.9999Z" fill="#53B8E8"/>
<path d="M14.017 16.9999H13.016V15.9999H14.017V16.9999Z" fill="#4D91E9"/>
<path d="M15.0185 16.9999H14.017V15.9999H15.0185V16.9999Z" fill="#53B8E8"/>
<path d="M16.0195 16.9999H15.0185V15.9999H16.0195V16.9999Z" fill="#53B8E8"/>
<path d="M12.0148 16.9999H11.013V15.9999H12.0148V16.9999Z" fill="#53B8E8"/>
<path d="M11.013 17.9999H10.0121V16.9999H11.013V17.9999Z" fill="#A8E8FE"/>
<path d="M10.0121 17.9999H9.01081V16.9999H10.0121V17.9999Z" fill="#53B8E8"/>
<path d="M11.013 16.9999H10.0121V15.9999H11.013V16.9999Z" fill="#A8E8FE"/>
<path d="M10.0121 16.9999H9.01081V15.9999H10.0121V16.9999Z" fill="#53B8E8"/>
<path d="M23.0278 15.9999H22.0269V14.9998H23.0281L23.0278 15.9999Z" fill="#4D91E9"/>
<path d="M22.0269 15.9999H21.0254V14.9998H22.0269V15.9999Z" fill="#53B8E8"/>
<path d="M23.0281 14.9998H22.0269V13.9998H23.0281V14.9998Z" fill="#4D91E9"/>
<path d="M22.0269 14.9998H21.0254V13.9998H22.0269V14.9998Z" fill="#4D91E9"/>
<path d="M21.0254 15.9999H20.0244V14.9998H21.0254V15.9999Z" fill="#53B8E8"/>
<path d="M19.0231 15.9999H18.0219V14.9998H19.0231V15.9999Z" fill="#A8E8FE"/>
<path d="M20.0244 15.9999H19.0231V14.9998H20.0244V15.9999Z" fill="#A8E8FE"/>
<path d="M21.0254 14.9998H20.0244V13.9998H21.0254V14.9998Z" fill="#53B8E8"/>
<path d="M24.029 13.9998L23.0281 13.9998L23.0278 12.9998H24.029V13.9998Z" fill="#4D91E9"/>
<path d="M24.029 14.9998L23.0281 14.9998V13.9998L24.029 13.9998V14.9998Z" fill="#4D91E9"/>
<path d="M24.029 15.9999H23.0278L23.0281 14.9998L24.029 14.9998V15.9999Z" fill="#4D91E9"/>
<path d="M23.0281 13.9998H22.0269V12.9998H23.0278L23.0281 13.9998Z" fill="#4D91E9"/>
<path d="M22.0269 13.9998H21.0254V12.9998H22.0269V13.9998Z" fill="#4D91E9"/>
<path d="M21.0254 13.9998H20.0244V12.9998H21.0254V13.9998Z" fill="#53B8E8"/>
<path d="M23.0278 12.9998H22.0269V11.9998H23.0281L23.0278 12.9998Z" fill="#4D91E9"/>
<path d="M22.0269 12.9998H21.0254V11.9998H22.0269V12.9998Z" fill="#4D91E9"/>
<path d="M23.0281 11.9998H22.0269V10.9997H23.0281V11.9998Z" fill="#4D91E9"/>
<path d="M22.0269 10.9997L21.0254 10.9997V9.99971H22.0266L22.0269 10.9997Z" fill="#4D91E9"/>
<path d="M22.0266 9.99971H21.0254V8.99996H22.0266V9.99971Z" fill="#4D91E9"/>
<path d="M22.0269 11.9998H21.0254V10.9997L22.0269 10.9997V11.9998Z" fill="#4D91E9"/>
<path d="M21.0254 12.9998H20.0244V11.9998H21.0254V12.9998Z" fill="#53B8E8"/>
<path d="M21.0254 11.9998H20.0244V10.9997L21.0254 10.9997V11.9998Z" fill="#4D91E9"/>
<path d="M21.0254 10.9997L20.0244 10.9997V9.99971H21.0254V10.9997Z" fill="#4D91E9"/>
<path d="M21.0254 9.99971H20.0244V8.99996H21.0254V9.99971Z" fill="#4D91E9"/>
<path d="M21.0254 8.99996H20.0244V7.99993H21.0256L21.0254 8.99996Z" fill="#4D91E9"/>
<path d="M17.0207 15.9999H16.0195V14.9998H17.0207V15.9999Z" fill="#53B8E8"/>
<path d="M18.0219 15.9999H17.0207V14.9998H18.0219V15.9999Z" fill="#A8E8FE"/>
<path d="M19.0231 14.9998H18.0219V13.9998H19.0231V14.9998Z" fill="#A8E8FE"/>
<path d="M20.0244 14.9998H19.0231V13.9998H20.0244V14.9998Z" fill="#A8E8FE"/>
<path d="M9.01081 15.9999H8.0096L8.00984 14.9998L9.01081 14.9998V15.9999Z" fill="#4D91E9"/>
<path d="M8.0096 15.9999H7.00861V14.9998L8.00984 14.9998L8.0096 15.9999Z" fill="#4D91E9"/>
<path d="M13.016 15.9999H12.0148V14.9998H13.016V15.9999Z" fill="#4D91E9"/>
<path d="M14.017 15.9999H13.016V14.9998H14.017V15.9999Z" fill="#4D91E9"/>
<path d="M15.0185 15.9999H14.017V14.9998H15.0185V15.9999Z" fill="#4D91E9"/>
<path d="M16.0195 15.9999H15.0185V14.9998H16.0195V15.9999Z" fill="#53B8E8"/>
<path d="M17.0207 14.9998H16.0195V13.9998H17.0207V14.9998Z" fill="#53B8E8"/>
<path d="M18.0219 14.9998H17.0207V13.9998H18.0219V14.9998Z" fill="#A8E8FE"/>
<path d="M9.01081 14.9998L8.00984 14.9998V13.9998L9.01081 13.9998V14.9998Z" fill="#4D91E9"/>
<path d="M12.0148 15.9999H11.013V14.9998H12.0148V15.9999Z" fill="#53B8E8"/>
<path d="M13.016 14.9998H12.0148V13.9998H13.016V14.9998Z" fill="#4D91E9"/>
<path d="M15.0185 14.9998H14.017L14.0173 13.9998H15.0185V14.9998Z" fill="#4D91E9"/>
<path d="M16.0195 14.9998H15.0185V13.9998H16.0195V14.9998Z" fill="#4D91E9"/>
<path d="M19.0231 13.9998H18.0219V12.9998H19.0231V13.9998Z" fill="#A8E8FE"/>
<path d="M20.0244 13.9998H19.0231V12.9998H20.0244V13.9998Z" fill="#A8E8FE"/>
<path d="M18.0219 13.9998H17.0207L17.0207 12.9998H18.0219V13.9998Z" fill="#A8E8FE"/>
<path d="M17.0207 13.9998H16.0195V12.9998H17.0207L17.0207 13.9998Z" fill="#53B8E8"/>
<path d="M16.0195 13.9998H15.0185L15.0182 12.9998H16.0195V13.9998Z" fill="#53B8E8"/>
<path d="M19.0231 12.9998H18.0219V11.9998H19.0231V12.9998Z" fill="#A8E8FE"/>
<path d="M20.0244 12.9998H19.0231V11.9998H20.0244V12.9998Z" fill="#53B8E8"/>
<path d="M17.0207 12.9998H16.0195V11.9998H17.0207L17.0207 12.9998Z" fill="#A8E8FE"/>
<path d="M18.0219 12.9998H17.0207L17.0207 11.9998H18.0219V12.9998Z" fill="#A8E8FE"/>
<path d="M19.0231 11.9998H18.0219V10.9997H19.0231V11.9998Z" fill="#53B8E8"/>
<path d="M20.0244 11.9998H19.0231V10.9997H20.0244V11.9998Z" fill="#53B8E8"/>
<path d="M16.0195 12.9998H15.0182V11.9998H16.0195V12.9998Z" fill="#53B8E8"/>
<path d="M17.0207 11.9998H16.0195V10.9997H17.0207V11.9998Z" fill="#A8E8FE"/>
<path d="M18.0219 11.9998H17.0207V10.9997H18.0219V11.9998Z" fill="#A8E8FE"/>
<path d="M19.0231 10.9997H18.0219V9.99971H19.0231V10.9997Z" fill="#53B8E8"/>
<path d="M20.0244 10.9997H19.0231V9.99971H20.0244V10.9997Z" fill="#4D91E9"/>
<path d="M16.0195 11.9998H15.0182V10.9997H16.0195V11.9998Z" fill="#53B8E8"/>
<path d="M17.0207 10.9997H16.0195V9.99971H17.0207V10.9997Z" fill="#A8E8FE"/>
<path d="M18.0219 10.9997H17.0207V9.99971H18.0219V10.9997Z" fill="#53B8E8"/>
<path d="M16.0195 10.9997H15.0182V9.99971H16.0195V10.9997Z" fill="#53B8E8"/>
<path d="M19.0231 9.99971H18.0219V8.99996H19.0231V9.99971Z" fill="#53B8E8"/>
<path d="M20.0244 9.99971H19.0231V8.99996H20.0244V9.99971Z" fill="#4D91E9"/>
<path d="M17.0207 9.99971H16.0195V8.99996H17.0207V9.99971Z" fill="#53B8E8"/>
<path d="M18.0219 9.99971H17.0207V8.99996H18.0219V9.99971Z" fill="#53B8E8"/>
<path d="M19.0231 8.99996H18.0219V7.99993H19.0231V8.99996Z" fill="#4D91E9"/>
<path d="M20.0244 8.99996H19.0231V7.99993H20.0244V8.99996Z" fill="#4D91E9"/>
<path d="M20.0244 7.99993H19.0231L19.0232 6.99991H20.0244L20.0244 7.99993Z" fill="#4D91E9"/>
<path d="M21.0256 7.99993H20.0244L20.0244 6.99991H21.0256V7.99993Z" fill="#4D91E9"/>
<path d="M20.0244 6.99991H19.0232V6.00015H20.0244V6.99991Z" fill="#4D91E9"/>
<path d="M16.0195 9.99971H15.0182V8.99996H16.0195V9.99971Z" fill="#53B8E8"/>
<path d="M17.0207 8.99996H16.0195V7.99993H17.0207V8.99996Z" fill="#53B8E8"/>
<path d="M18.0219 8.99996H17.0207V7.99993H18.0219V8.99996Z" fill="#53B8E8"/>
<path d="M16.0195 8.99996H15.0182V7.99993H16.0195V8.99996Z" fill="#4D91E9"/>
<path d="M19.0231 7.99993H18.0219V6.99991H19.0232L19.0231 7.99993Z" fill="#4D91E9"/>
<path d="M17.0207 7.99993H16.0195V6.99991H17.0207V7.99993Z" fill="#53B8E8"/>
<path d="M18.0219 7.99993H17.0207V6.99991H18.0219V7.99993Z" fill="#4D91E9"/>
<path d="M19.0232 6.99991H18.0219V6.00015H19.0232V6.99991Z" fill="#4D91E9"/>
<path d="M16.0195 7.99993H15.0182V6.99991H16.0195V7.99993Z" fill="#4D91E9"/>
<path d="M17.0207 6.99991H16.0195V6.00015H17.0207V6.99991Z" fill="#53B8E8"/>
<path d="M18.0219 6.99991H17.0207V6.00015H18.0219V6.99991Z" fill="#4D91E9"/>
<path d="M16.0195 6.99991H15.0182V6.00015H16.0195V6.99991Z" fill="#4D91E9"/>
<path d="M19.0232 6.00015H18.0219V5.00013H19.0231L19.0232 6.00015Z" fill="#4D91E9"/>
<path d="M17.0207 6.00015H16.0195V5.00013H17.0207V6.00015Z" fill="#4D91E9"/>
<path d="M18.0219 6.00015H17.0207V5.00013H18.0219V6.00015Z" fill="#4D91E9"/>
<path d="M19.0231 5.00013H18.0219V3.99983H19.0231V5.00013Z" fill="#4D91E9"/>
<path d="M16.0195 6.00015H15.0182V5.00013H16.0195V6.00015Z" fill="#4D91E9"/>
<path d="M17.0207 5.00013H16.0195V3.99983H17.0207V5.00013Z" fill="#4D91E9"/>
<path d="M18.0219 5.00013H17.0207V3.99983H18.0219V5.00013Z" fill="#4D91E9"/>
<path d="M16.0195 5.00013H15.0182V3.99983H16.0195V5.00013Z" fill="#4D91E9"/>
<path d="M17.0207 3.99983H16.0195V3.00008H17.0207V3.99983Z" fill="#4D91E9"/>
<path d="M18.0219 3.99983H17.0207V3.00008H18.0219L18.0219 3.99983Z" fill="#4D91E9"/>
<path d="M16.0195 3.99983H15.0182V3.00008H16.0195V3.99983Z" fill="#4D91E9"/>
<path d="M17.0207 3.00008H16.0195V1.99978H17.0207V3.00008Z" fill="#4D91E9"/>
<path d="M18.0219 3.00008H17.0207V1.99978H18.0219V3.00008Z" fill="#4D91E9"/>
<path d="M16.0195 3.00008H15.0182V1.99978H16.0195V3.00008Z" fill="#4D91E9"/>
<path d="M17.0207 1.99978H16.0195V0.999749H17.0207V1.99978Z" fill="#4D91E9"/>
<path d="M16.0195 1.99978H15.0182V0.999749H16.0195V1.99978Z" fill="#4D91E9"/>
<path d="M16.0195 0.999749H15.0182V0H16.0195L16.0195 0.999749Z" fill="#4D91E9"/>
<path d="M12.0148 14.9998H11.013L11.0133 13.9998L12.0148 13.9998V14.9998Z" fill="#4D91E9"/>
<path d="M12.0148 13.9998L11.0133 13.9998V12.9998H12.0145L12.0148 13.9998Z" fill="#4D91E9"/>
<path d="M12.0145 12.9998H11.0133V11.9997L12.0145 11.9998V12.9998Z" fill="#4D91E9"/>
<path d="M15.0185 13.9998H14.0173V12.9998H15.0182L15.0185 13.9998Z" fill="#4D91E9"/>
<path d="M15.0182 12.9998H14.0173V11.9998H15.0182V12.9998Z" fill="#4D91E9"/>
<path d="M15.0182 11.9998H14.0173V10.9997H15.0182V11.9998Z" fill="#4D91E9"/>
<path d="M15.0182 10.9997H14.0173V9.99971H15.0182V10.9997Z" fill="#4D91E9"/>
<path d="M15.0182 9.99971H14.0173V8.99996H15.0182V9.99971Z" fill="#4D91E9"/>
<path d="M15.0182 8.99996H14.0173V7.99993H15.0182V8.99996Z" fill="#4D91E9"/>
<path d="M15.0182 7.99993H14.0173V6.99991H15.0182V7.99993Z" fill="#4D91E9"/>
<path d="M15.0182 6.99991H14.0173V6.00015H15.0182V6.99991Z" fill="#4D91E9"/>
<path d="M12.0145 11.9998L11.0133 11.9997V10.9997L12.0145 10.9997V11.9998Z" fill="#4D91E9"/>
<path d="M12.0145 10.9997L11.0133 10.9997V9.99971H12.0145V10.9997Z" fill="#4D91E9"/>
<path d="M12.0145 9.99971H11.0133V8.99993L12.0145 8.99996V9.99971Z" fill="#4D91E9"/>
<path d="M11.013 15.9999H10.0121V14.9998H11.013V15.9999Z" fill="#53B8E8"/>
<path d="M10.0121 15.9999H9.01081V14.9998H10.0121V15.9999Z" fill="#53B8E8"/>
<path d="M11.013 14.9998H10.0121V13.9998H11.0133L11.013 14.9998Z" fill="#53B8E8"/>
<path d="M10.0121 14.9998H9.01081V13.9998H10.0121V14.9998Z" fill="#53B8E8"/>
<path d="M10.0121 13.9998H9.01081V12.9998L10.012 12.9998L10.0121 13.9998Z" fill="#53B8E8"/>
<path d="M64.9195 34.8233H58.5688L46.3794 20.1942L43.1528 23.7758V34.8233H38.0312V1.17642H43.1528V17.8737L57.442 1.17642H63.7928L49.7084 17.1171L64.9195 34.8233Z" fill="white"/>
<path d="M88.4444 34.8233H83.3228V26.7521H67.0874V22.6156L81.4278 1.17642H88.4444V22.3129H93.1562V26.7521H88.4444V34.8233ZM83.3228 22.3129V5.76692L72.1578 22.3129H83.3228Z" fill="white"/>
</svg>
