<svg viewBox="0 0 103 10" fill="none" xmlns="http://www.w3.org/2000/svg">
<path d="M8.19507 6.49686C8.30967 6.20335 8.07967 5.8918 7.74839 5.8918H3.66162C3.23917 5.8918 2.87576 5.50841 2.72131 5.07826C2.56687 4.64812 2.61684 4.11044 2.87122 3.46522L3.11652 2.86208C3.35273 2.22621 3.72976 1.6745 4.24762 1.20695C4.78364 0.7394 5.28786 0.505625 5.76029 0.505625H13.0784L12.9128 0.924842C12.4961 1.98005 11.429 2.67973 10.2364 2.67973H5.99603C5.79698 2.67973 5.61894 2.79666 5.54969 2.97288L5.41243 3.32214C5.29703 3.61579 5.52706 3.92809 5.85877 3.92809H9.94399C10.4346 4.0029 10.7753 4.21797 10.9661 4.57331C11.1659 4.92865 11.1387 5.42893 10.8843 6.07415L10.4755 7.12613C10.2211 7.762 9.83043 8.31839 9.30349 8.79529C8.77655 9.25349 8.27233 9.48259 7.79081 9.48259H0.5L0.628081 9.15521C1.04248 8.096 2.11174 7.39264 3.30756 7.39264H7.51344C7.71286 7.39264 7.89115 7.27528 7.96013 7.0986L8.19507 6.49686Z" fill="#0092FF"/>
<path d="M16.4435 0.519651L14.0265 6.9216C13.9159 7.21432 14.1458 7.52211 14.4749 7.52211H17.6922C17.8935 7.52211 18.0731 7.40256 18.1407 7.22352L20.6717 0.519651H23.0938L20.1075 8.13257C19.7874 8.94842 19.0182 9.48259 18.1634 9.48259H12.2053C11.751 9.48259 11.4649 9.25349 11.3468 8.79529C11.2105 8.32774 11.2695 7.77135 11.5239 7.12613L14.1132 0.519651H16.4435Z" fill="#0092FF"/>
<path d="M28.707 4.18057C29.028 4.18057 29.3168 3.97968 29.4365 3.67309L29.6798 3.05006C29.749 2.87281 29.6222 2.67973 29.4366 2.67973H26.19C25.9909 2.67973 25.8128 2.79672 25.7436 2.973L23.1877 9.48259H20.6121L24.128 0.519651H31.4597C31.9594 0.519651 32.291 0.748751 32.4545 1.20695C32.6271 1.66515 32.5908 2.21686 32.3455 2.86208L31.923 3.92809C31.6687 4.57331 31.2735 5.12502 30.7374 5.58322C30.2105 6.04142 29.7017 6.27052 29.2111 6.27052H24.4257L25.2434 4.18057H28.707Z" fill="#0092FF"/>
<path d="M34.2178 5.93388L34.9809 3.9842H41.4048L40.6416 5.93388H34.2178ZM34.1344 6.64625C34.0189 6.93994 34.2489 7.25237 34.5807 7.25237H40.5735L39.7013 9.48259H32.3287C31.8654 9.48259 31.5747 9.25349 31.4566 8.79529C31.3203 8.34644 31.3839 7.79005 31.6474 7.12613L33.3099 2.8761C33.5643 2.22153 33.9368 1.66515 34.4274 1.20695C34.9271 0.748751 35.3995 0.519651 35.8447 0.519651H43.19L42.3178 2.74987H35.9985C35.7995 2.74987 35.6216 2.86672 35.5523 3.04285L34.1344 6.64625Z" fill="#0092FF"/>
<path d="M58.2159 6.49686C58.3305 6.20335 58.1005 5.8918 57.7692 5.8918H53.6825C53.2588 5.8918 52.8966 5.50841 52.7422 5.07826C52.5877 4.64812 52.6377 4.11044 52.8921 3.46522L53.1374 2.86208C53.3736 2.22621 53.7506 1.6745 54.2685 1.20695C54.8045 0.7394 55.3087 0.505625 55.7811 0.505625H63.0992L62.9336 0.924839C62.517 1.98005 61.4498 2.67973 60.2572 2.67973H56.0169C55.8178 2.67973 55.6398 2.79666 55.5705 2.97288L55.4333 3.32214C55.3179 3.61579 55.5479 3.92809 55.8796 3.92809H59.9648C60.4554 4.0029 60.7961 4.21797 60.9869 4.57331C61.1868 4.92865 61.1595 5.42893 60.9051 6.07415L60.4963 7.12613C60.2419 7.762 59.8513 8.31839 59.3243 8.79529C58.7974 9.25349 58.2932 9.48259 57.8117 9.48259H50.5208L50.6489 9.15521C51.0633 8.096 52.1326 7.39264 53.3284 7.39264H57.5343C57.7337 7.39264 57.912 7.27528 57.981 7.0986L58.2159 6.49686Z" fill="#0092FF"/>
<path d="M72.8567 0.519651L72.0995 2.45604C72.0304 2.63261 71.8522 2.74987 71.6529 2.74987H68.8093L66.4276 9.48259H63.8656L66.2473 2.74987H63.769C63.4376 2.74987 63.2076 2.43813 63.3224 2.14459L63.9579 0.519651H72.8567Z" fill="#0092FF"/>
<path d="M78.4911 4.71358L79.0474 3.30705C79.1527 3.04095 78.9625 2.74987 78.6833 2.74987H75.4766C75.1569 2.74987 74.869 2.94915 74.7485 3.25394L74.1711 4.71358H78.4911ZM73.4216 6.62118L72.3041 9.48259H70.001L72.5903 2.8761C72.8446 2.22153 73.2171 1.66515 73.7077 1.20695C74.2074 0.748751 74.6799 0.519651 75.125 0.519651H80.8486C81.2938 0.519651 81.5755 0.748751 81.6936 1.20695C81.8298 1.64645 81.7799 2.1701 81.5437 2.77792L78.9135 9.48259H76.6241L77.7415 6.62118H73.4216Z" fill="#0092FF"/>
<path d="M83.5793 6.64625C83.4637 6.93994 83.6938 7.25237 84.0256 7.25237H89.8823L89.0101 9.48259H81.6375C81.1742 9.48259 80.8835 9.25349 80.7654 8.79529C80.6291 8.34644 80.6927 7.79005 80.9561 7.12613L82.6187 2.8761C82.8731 2.22153 83.2456 1.66515 83.7362 1.20695C84.2359 0.748751 84.7083 0.519651 85.1535 0.519651H92.4988L91.6266 2.74987H85.4434C85.2444 2.74987 85.0664 2.86672 84.9971 3.04285L83.5793 6.64625Z" fill="#0092FF"/>
<path d="M92.4019 9.48259H90.0443L93.5738 0.505625H95.9314L92.4019 9.48259ZM94.4699 4.22272L98.8887 0.519651H102.5L96.549 5.225L98.8614 9.49661H95.8497L94.0012 5.37035L94.4699 4.22272Z" fill="#0092FF"/>
<path d="M49.7355 9.5H46.93L45.5176 6.26886H48.0782L49.7355 9.5Z" fill="#0092FF"/>
<path d="M48.7597 4.17237C49.0818 4.17237 49.3714 3.97086 49.4915 3.66331L49.7355 3.03832C49.805 2.86053 49.6778 2.66684 49.4916 2.66684H46.2348C46.0351 2.66684 45.8564 2.7842 45.787 2.96103L43.2231 9.49099H40.6394L44.1664 0.5H51.521C52.0223 0.5 52.3549 0.729817 52.519 1.18945C52.6921 1.64908 52.6557 2.20252 52.4096 2.84976L51.9858 3.91911C51.7306 4.56635 51.3342 5.11978 50.7965 5.57941C50.2679 6.03905 49.7576 6.26886 49.2654 6.26886H44.465L45.2853 4.17237H48.7597Z" fill="#0092FF"/>
</svg>
