<svg viewBox="0 0 113 16" fill="none" xmlns="http://www.w3.org/2000/svg">
<path d="M3.21793 12.445C2.39193 12.445 1.63593 12.053 1.08993 11.493C0.837932 11.255 0.697932 11.255 0.627932 11.605L0.501932 12.249H0.179932L0.193932 8.13297H0.529932C0.627932 10.275 1.70593 11.913 3.20393 11.913C4.47793 11.913 5.00993 10.891 5.00993 9.98097C5.00993 8.63697 3.95993 7.78297 2.79793 6.90097C1.45393 5.89297 0.263932 4.98297 0.263932 3.35897C0.263932 1.79097 1.39793 0.796974 2.92393 0.796974C3.69393 0.796974 4.23993 1.03497 4.74393 1.51097C4.98193 1.72097 5.17793 1.66497 5.20593 1.35697L5.26193 0.936974H5.58393L5.76593 4.60497H5.44393C5.27593 2.78497 4.47793 1.31497 2.97993 1.31497C1.90193 1.31497 1.31393 2.12697 1.31393 3.03697C1.31393 4.21297 2.19593 4.94097 3.44193 5.87897C4.82793 6.91497 6.04593 7.89497 6.04593 9.61697C6.04593 11.269 4.89793 12.445 3.21793 12.445Z" fill="white"/>
<path d="M11.3302 12.235L11.3022 11.087L11.2602 11.073C10.8122 11.787 10.1122 12.445 9.18817 12.445C8.23617 12.445 7.76017 11.661 7.76017 10.499V6.39697C7.76017 5.50097 7.73217 5.34697 6.87817 5.62697L6.78017 5.31897L8.65617 4.70297L8.82417 4.87097V10.387C8.82417 11.227 9.10417 11.633 9.65017 11.633C10.2242 11.633 10.8402 11.143 11.3022 10.541V6.39697C11.3022 5.50097 11.2882 5.34697 10.4342 5.62697L10.3362 5.31897L12.1982 4.70297L12.3802 4.87097L12.3662 10.695C12.3662 11.605 12.3802 11.773 13.2482 11.437L13.3602 11.745L11.5682 12.431L11.3302 12.235Z" fill="white"/>
<path d="M17.7165 12.389C17.0585 12.389 16.4425 12.039 16.0785 11.353H16.0505V13.901C16.0505 14.797 16.1625 14.979 17.0025 14.979V15.301H14.0345V14.979C14.8605 14.979 14.9865 14.797 14.9865 13.901L14.9725 6.34097C14.9725 5.43097 14.9725 5.26297 14.1465 5.58497L14.0205 5.27697L15.1265 4.85697L15.8545 4.56297L16.0505 4.75897V5.99097H16.1065C16.6385 5.06697 17.2685 4.59097 18.0105 4.59097C19.3965 4.59097 20.0265 6.15897 20.0265 8.25897C20.0265 10.443 19.2565 12.389 17.7165 12.389ZM16.0505 9.18297C16.0505 10.751 16.6805 11.801 17.4785 11.801C18.4725 11.801 18.8645 10.191 18.8645 8.42697C18.8645 6.57897 18.4585 5.41697 17.5905 5.41697C16.9885 5.41697 16.4285 5.94897 16.0505 6.59297V9.18297Z" fill="white"/>
<path d="M25.06 7.60097C25.06 6.28497 24.766 5.10897 23.884 5.10897C23.016 5.10897 22.596 6.21497 22.498 7.60097H25.06ZM21.392 8.63697C21.392 6.42497 22.316 4.59097 23.884 4.59097C25.382 4.59097 26.152 6.06097 26.152 8.11897H22.47V8.27297C22.47 10.149 23.086 11.563 24.22 11.563C24.85 11.563 25.592 11.045 25.914 9.25297H26.236C25.97 11.493 25.046 12.445 23.814 12.445C22.302 12.445 21.392 10.905 21.392 8.63697Z" fill="white"/>
<path d="M27.3048 12.221V11.899C28.1168 11.899 28.2288 11.717 28.2288 10.821V6.34097C28.2288 5.43097 28.2288 5.26297 27.4028 5.59897L27.2768 5.29097L28.3688 4.85697L29.0828 4.56297L29.2928 4.75897V6.04697H29.3348C29.7128 5.27697 30.3568 4.57697 31.0848 4.57697C31.5468 4.57697 31.7848 4.82898 31.7848 5.23497C31.7848 5.71097 31.5048 5.99097 31.1968 5.99097C30.9728 5.99097 30.8748 5.89297 30.7208 5.72497C30.5528 5.57097 30.4828 5.51497 30.3288 5.51497C30.0068 5.51497 29.6288 5.96297 29.2928 6.85897V10.779C29.2928 11.703 29.4748 11.899 30.7208 11.899V12.221H27.3048Z" fill="white"/>
<path d="M32.6861 12.221V11.899C33.4981 11.899 33.6101 11.717 33.6101 10.821V6.34097C33.6101 5.43097 33.6241 5.26297 32.7841 5.59897L32.6721 5.29097L33.7501 4.85697L34.4501 4.56297L34.6881 4.75897V5.97697H34.7301C35.3461 5.15097 35.9341 4.57697 36.8301 4.57697C37.8241 4.57697 38.3001 5.31897 38.3001 6.53697V10.821C38.3001 11.717 38.4121 11.899 39.2101 11.899V12.221H36.3681V11.899C37.1381 11.899 37.2501 11.717 37.2501 10.821V6.60697C37.2501 5.79497 36.9141 5.41697 36.3681 5.41697C35.7521 5.41697 35.2201 5.85097 34.6881 6.50897V10.821C34.6881 11.717 34.7861 11.899 35.5561 11.899V12.221H32.6861Z" fill="white"/>
<path d="M42.9337 12.445C41.2537 12.445 40.1197 10.793 40.1197 8.55297C40.1197 6.34097 41.1557 4.59097 42.9337 4.59097C44.6137 4.59097 45.7617 6.22897 45.7617 8.48297C45.7617 10.695 44.7257 12.445 42.9337 12.445ZM43.1297 11.885C44.2077 11.885 44.6417 10.513 44.6417 9.18297C44.6417 7.27897 44.0257 5.13697 42.7377 5.13697C41.6737 5.13697 41.2257 6.52297 41.2257 7.83897C41.2257 9.74297 41.8557 11.885 43.1297 11.885Z" fill="white"/>
<path d="M50.9507 6.15897C51.2167 5.30497 51.2167 5.13697 50.2927 5.13697V4.82897H52.6587V5.13697C52.0007 5.13697 51.7627 5.30497 51.4967 6.15897L49.6207 12.333H49.0187L47.1567 6.15897C46.8907 5.30497 46.6667 5.13697 46.0647 5.13697V4.82897H49.0047V5.13697C48.0667 5.13697 48.0667 5.31897 48.3047 6.17297L49.5647 10.555H49.6487L50.9507 6.15897Z" fill="white"/>
<path d="M57.5664 12.445C56.8524 12.445 56.4324 11.927 56.4324 10.751V10.345C56.0824 11.703 55.3684 12.445 54.4024 12.445C53.4364 12.445 52.9044 11.703 52.9044 10.807C52.9044 9.05697 54.8504 8.27297 56.4324 7.54497V6.71897C56.4324 5.51497 56.0124 5.08097 55.3124 5.08097C54.7384 5.08097 54.3044 5.37497 54.3044 5.86497C54.3044 6.20097 54.5004 6.35497 54.5004 6.66297C54.5004 6.98497 54.2904 7.22297 53.9124 7.22297C53.4784 7.22297 53.2544 6.88697 53.2544 6.39697C53.2544 5.38897 54.1924 4.57697 55.4944 4.57697C56.6984 4.57697 57.4964 5.26297 57.4964 6.76097V10.975C57.4964 11.703 57.6504 11.871 57.8884 11.871C58.1824 11.871 58.4064 11.605 58.4204 10.681H58.7284C58.7004 11.689 58.4204 12.445 57.5664 12.445ZM53.9824 10.527C53.9824 11.129 54.2624 11.549 54.7944 11.549C55.3964 11.549 56.0264 11.003 56.4324 9.65897V7.97897C55.2284 8.59497 53.9824 9.28097 53.9824 10.527Z" fill="white"/>
<path d="M62.5285 12.221V11.899C63.8585 11.899 64.0125 11.675 64.0125 10.821V2.40697C64.0125 1.55297 63.8585 1.32897 62.5285 1.32897V1.02097H66.5325C68.8985 1.02097 69.9905 2.08497 69.9905 3.84897C69.9905 5.66897 68.7725 6.56497 67.1625 6.81697C67.5405 6.98497 67.8205 7.27897 68.2265 8.11897L69.5705 10.695C70.0045 11.563 70.2285 11.899 71.2645 11.899V12.221H70.7465C69.0665 12.221 68.8565 12.025 68.2265 10.723L66.2945 6.90097H66.0705C65.7765 6.90097 65.4825 6.88697 65.2165 6.85897V10.821C65.2165 11.675 65.3705 11.899 66.7005 11.899V12.221H62.5285ZM65.2165 6.35497C65.4965 6.39697 65.8045 6.41097 66.1125 6.41097C67.6385 6.41097 68.7305 5.68297 68.7305 3.91897C68.7305 2.37897 67.8905 1.53897 66.4205 1.53897C66.0985 1.53897 65.7765 1.58097 65.4825 1.67897C65.2865 1.74897 65.2165 1.88897 65.2165 2.07097V6.35497Z" fill="white"/>
<path d="M75.2194 7.60097C75.2194 6.28497 74.9254 5.10897 74.0434 5.10897C73.1754 5.10897 72.7554 6.21497 72.6574 7.60097H75.2194ZM71.5514 8.63697C71.5514 6.42497 72.4754 4.59097 74.0434 4.59097C75.5414 4.59097 76.3114 6.06097 76.3114 8.11897H72.6294V8.27297C72.6294 10.149 73.2454 11.563 74.3794 11.563C75.0094 11.563 75.7514 11.045 76.0734 9.25297H76.3954C76.1294 11.493 75.2054 12.445 73.9734 12.445C72.4614 12.445 71.5514 10.905 71.5514 8.63697Z" fill="white"/>
<path d="M79.9939 12.445C79.3219 12.445 78.8179 12.151 78.5379 11.941C78.3559 11.815 78.2579 11.843 78.1739 12.025L78.0759 12.291H77.7819L77.6839 9.32297H77.9779C78.1739 11.031 78.9719 11.913 79.8959 11.913C80.5679 11.913 80.9319 11.423 80.9319 10.681C80.9319 9.99497 80.6239 9.71497 79.3359 8.63697C78.1739 7.68497 77.7819 7.16697 77.7819 6.39697C77.7819 5.31897 78.5519 4.59097 79.5879 4.59097C80.2039 4.59097 80.6239 4.84297 80.8619 5.05297C81.0439 5.22098 81.1699 5.15097 81.2119 4.98297L81.2819 4.68897H81.5759L81.6319 7.08297H81.3379C81.1839 5.99097 80.6099 5.10897 79.6859 5.10897C79.0979 5.10897 78.7059 5.51497 78.7059 6.11697C78.7059 6.74697 79.0979 7.08297 80.0359 7.83897C81.2959 8.87497 81.8559 9.46297 81.8559 10.485C81.8559 11.801 81.0019 12.445 79.9939 12.445Z" fill="white"/>
<path d="M86.7612 7.60097C86.7612 6.28497 86.4672 5.10897 85.5852 5.10897C84.7172 5.10897 84.2972 6.21497 84.1992 7.60097H86.7612ZM83.0932 8.63697C83.0932 6.42497 84.0172 4.59097 85.5852 4.59097C87.0832 4.59097 87.8532 6.06097 87.8532 8.11897H84.1712V8.27297C84.1712 10.149 84.7872 11.563 85.9212 11.563C86.5512 11.563 87.2932 11.045 87.6152 9.25297H87.9372C87.6712 11.493 86.7472 12.445 85.5152 12.445C84.0032 12.445 83.0932 10.905 83.0932 8.63697Z" fill="white"/>
<path d="M93.7367 12.445C93.0227 12.445 92.6027 11.927 92.6027 10.751V10.345C92.2527 11.703 91.5387 12.445 90.5727 12.445C89.6067 12.445 89.0747 11.703 89.0747 10.807C89.0747 9.05697 91.0207 8.27297 92.6027 7.54497V6.71897C92.6027 5.51497 92.1827 5.08097 91.4827 5.08097C90.9087 5.08097 90.4747 5.37497 90.4747 5.86497C90.4747 6.20097 90.6707 6.35497 90.6707 6.66297C90.6707 6.98497 90.4607 7.22297 90.0827 7.22297C89.6487 7.22297 89.4247 6.88697 89.4247 6.39697C89.4247 5.38897 90.3627 4.57697 91.6647 4.57697C92.8687 4.57697 93.6667 5.26297 93.6667 6.76097V10.975C93.6667 11.703 93.8207 11.871 94.0587 11.871C94.3527 11.871 94.5767 11.605 94.5907 10.681H94.8987C94.8707 11.689 94.5907 12.445 93.7367 12.445ZM90.1527 10.527C90.1527 11.129 90.4327 11.549 90.9647 11.549C91.5667 11.549 92.1967 11.003 92.6027 9.65897V7.97897C91.3987 8.59497 90.1527 9.28097 90.1527 10.527Z" fill="white"/>
<path d="M95.5767 12.221V11.899C96.3887 11.899 96.5007 11.717 96.5007 10.821V6.34097C96.5007 5.43097 96.5007 5.26297 95.6747 5.59897L95.5487 5.29097L96.6407 4.85697L97.3547 4.56297L97.5647 4.75897V6.04697H97.6067C97.9847 5.27697 98.6287 4.57697 99.3567 4.57697C99.8187 4.57697 100.057 4.82898 100.057 5.23497C100.057 5.71097 99.7767 5.99097 99.4687 5.99097C99.2447 5.99097 99.1467 5.89297 98.9927 5.72497C98.8247 5.57097 98.7547 5.51497 98.6007 5.51497C98.2787 5.51497 97.9007 5.96297 97.5647 6.85897V10.779C97.5647 11.703 97.7467 11.899 98.9927 11.899V12.221H95.5767Z" fill="white"/>
<path d="M103.259 12.445C101.705 12.445 100.823 10.863 100.823 8.63697C100.823 6.35497 101.775 4.59097 103.469 4.59097C104.589 4.59097 105.317 5.36097 105.317 6.35497C105.317 6.90097 105.093 7.22297 104.659 7.22297C104.281 7.22297 104.099 6.95697 104.099 6.66297C104.099 6.43897 104.197 6.15897 104.197 5.86497C104.197 5.37497 103.917 5.12297 103.469 5.12297C102.363 5.12297 101.929 6.62097 101.929 8.23097C101.929 10.051 102.517 11.549 103.637 11.549C104.253 11.549 104.981 11.045 105.219 9.19697H105.541C105.401 11.479 104.421 12.445 103.259 12.445Z" fill="white"/>
<path d="M108.284 10.821C108.284 11.717 108.396 11.899 109.152 11.899V12.221H106.296V11.899C107.108 11.899 107.22 11.717 107.22 10.821V2.54697C107.22 1.65097 107.248 1.49697 106.422 1.90297L106.282 1.62297L107.36 1.09097L108.13 0.698975L108.284 0.880974V5.97697H108.326C108.942 5.15097 109.544 4.57697 110.44 4.57697C111.434 4.57697 111.91 5.31897 111.91 6.53697V10.821C111.91 11.717 112.022 11.899 112.82 11.899V12.221H109.978V11.899C110.734 11.899 110.846 11.717 110.846 10.821V6.59297C110.846 5.78097 110.524 5.41697 109.978 5.41697C109.348 5.41697 108.83 5.85097 108.284 6.50897V10.821Z" fill="white"/>
</svg>
